<svg version="1.2" baseProfile="tiny-ps" xmlns="http://www.w3.org/2000/svg" viewBox="0 0 1922 744" width="1922" height="744">
	<title>Pattern</title>
	<style>
		tspan { white-space:pre }
		.shp0 { fill: #ededed } 
	</style>
	<path id="Pattern" class="shp0" d="M59.05 47.18L57.38 45.6L59.19 46.99L64.38 40.28L94.87 11.46L125.5 40.44L129.76 45.97L178.37 -0.02L180.58 -0.02L130.69 47.18L131.44 48.14L94.87 13.54L58.3 48.14L59.05 47.18ZM9.16 -0.02L11.36 -0.02L57.97 44.07L57.03 45.27L9.16 -0.02ZM94.87 80.83L21.43 150.31L20.5 149.1L94.87 78.74L169.24 149.1L168.31 150.31L94.87 80.83ZM80.59 226.81L94.87 213.31L109.14 226.81L108.21 228.02L94.87 215.39L81.53 228.02L80.59 226.81ZM50.55 187.96L94.87 146.02L139.19 187.96L138.26 189.16L94.87 148.11L51.48 189.16L50.55 187.96ZM94.87 181.75L66.5 208.59L65.57 207.38L94.87 179.66L124.17 207.38L123.24 208.59L94.87 181.75ZM94.87 47.19L6.41 130.88L5.48 129.67L94.87 45.1L184.26 129.67L183.33 130.88L94.87 47.19ZM116.75 24.64L142.82 -0.02L145.02 -0.02L117.68 25.85L116.75 24.64ZM101.72 5.21L107.26 -0.02L109.47 -0.02L102.66 6.42L101.72 5.21ZM191.11 57.3L162.75 84.13L161.82 82.92L191.02 55.29L191.04 55.31L191.12 55.23L220.39 82.92L219.46 84.13L191.11 57.3ZM116.75 273.56L191.11 203.21L265.46 273.56L264.53 274.77L191.11 205.3L117.68 274.77L116.75 273.56ZM101.72 254.13L191.11 169.57L280.49 254.13L279.56 255.34L191.11 171.66L102.66 255.34L101.72 254.13ZM0 92.24L0 90.15L12.9 102.35L11.96 103.56L0 92.24ZM0 24.96L0 22.87L42.94 63.5L42.01 64.7L0 24.96ZM0 58.6L0 56.51L27.92 82.92L26.99 84.13L0 58.6ZM80.27 -0.02L82.48 -0.02L88.01 5.21L87.08 6.42L80.27 -0.02ZM44.71 -0.02L46.92 -0.02L72.99 24.64L72.06 25.85L44.71 -0.02ZM0 172.95L0 170.86L88.01 254.13L87.08 255.34L0 172.95ZM0 206.59L0 204.5L72.99 273.56L72.06 274.77L0 206.59ZM251.52 47.18L249.85 45.59L251.66 46.99L256.85 40.28L287.34 11.46L317.97 40.44L322.23 45.97L370.85 -0.02L373.06 -0.02L323.17 47.18L323.91 48.14L287.34 13.54L250.77 48.14L251.52 47.18ZM201.63 -0.02L203.84 -0.02L250.44 44.07L249.51 45.27L201.63 -0.02ZM287.34 80.83L213.91 150.31L212.97 149.1L287.34 78.74L361.71 149.1L360.78 150.31L287.34 80.83ZM273.07 226.81L287.34 213.31L301.62 226.81L300.68 228.02L287.34 215.39L274 228.02L273.07 226.81ZM287.34 148.11L243.95 189.16L243.02 187.96L287.34 146.02L331.67 187.96L330.73 189.16L287.34 148.11ZM258.04 207.38L287.34 179.66L316.64 207.38L315.71 208.59L287.34 181.75L258.98 208.59L258.04 207.38ZM287.34 47.19L198.88 130.88L197.95 129.67L287.34 45.1L376.74 129.67L375.8 130.88L287.34 47.19ZM309.22 24.64L335.29 -0.02L337.5 -0.02L310.15 25.85L309.22 24.64ZM294.2 5.21L299.73 -0.02L301.94 -0.02L295.13 6.42L294.2 5.21ZM383.58 57.3L355.23 84.13L354.29 82.92L383.55 55.24L383.63 55.31L383.65 55.28L412.87 82.92L411.93 84.13L383.58 57.3ZM309.22 273.56L383.58 203.21L457.94 273.56L457.01 274.77L383.58 205.3L310.15 274.77L309.22 273.56ZM294.2 254.13L383.58 169.57L472.96 254.13L472.03 255.34L383.58 171.66L295.13 255.34L294.2 254.13ZM176.84 102.35L191.11 88.86L205.37 102.35L204.44 103.56L191.11 90.95L177.78 103.56L176.84 102.35ZM146.8 63.5L191.02 21.65L191.04 21.67L191.12 21.59L235.41 63.5L234.48 64.7L191.11 23.66L147.73 64.7L146.8 63.5ZM272.75 -0.02L274.95 -0.02L280.49 5.21L279.56 6.42L272.75 -0.02ZM237.19 -0.02L239.39 -0.02L265.46 24.64L264.53 25.85L237.19 -0.02ZM443.99 47.18L442.32 45.59L444.13 46.99L449.33 40.28L479.82 11.46L510.45 40.44L514.71 45.97L563.32 -0.02L565.53 -0.02L515.64 47.18L516.39 48.14L479.82 13.54L443.24 48.15L443.99 47.18ZM394.1 -0.02L396.31 -0.02L442.91 44.07L441.98 45.27L394.1 -0.02ZM479.82 80.83L406.38 150.31L405.45 149.1L479.82 78.74L554.19 149.1L553.25 150.31L479.82 80.83ZM479.82 215.39L466.47 228.02L465.54 226.81L479.82 213.31L494.09 226.81L493.16 228.02L479.82 215.39ZM479.82 148.11L436.42 189.16L435.49 187.96L479.82 146.02L524.14 187.96L523.21 189.16L479.82 148.11ZM450.52 207.38L479.82 179.66L509.11 207.38L508.18 208.59L479.82 181.75L451.45 208.59L450.52 207.38ZM390.42 129.67L479.82 45.1L569.21 129.67L568.28 130.88L479.82 47.19L391.36 130.88L390.42 129.67ZM501.69 24.64L527.76 -0.02L529.97 -0.02L502.63 25.85L501.69 24.64ZM486.67 5.21L492.2 -0.02L494.41 -0.02L487.6 6.42L486.67 5.21ZM576.05 57.3L547.7 84.13L546.77 82.92L576.05 55.22L605.34 82.92L604.41 84.13L576.05 57.3ZM501.69 273.56L576.05 203.21L650.41 273.56L649.48 274.77L576.05 205.3L502.63 274.77L501.69 273.56ZM576.05 171.66L487.6 255.34L486.67 254.13L576.05 169.57L665.43 254.13L664.5 255.34L576.05 171.66ZM383.58 90.95L370.25 103.56L369.32 102.35L383.58 88.86L397.84 102.35L396.91 103.56L383.58 90.95ZM339.27 63.5L383.55 21.6L383.63 21.67L383.65 21.64L427.89 63.5L426.96 64.7L383.58 23.66L340.2 64.7L339.27 63.5ZM465.22 -0.02L467.43 -0.02L472.96 5.21L472.03 6.42L465.22 -0.02ZM429.66 -0.02L431.87 -0.02L457.94 24.64L457.01 25.85L429.66 -0.02ZM636.47 47.18L634.79 45.59L636.61 46.99L641.8 40.28L672.29 11.46L702.92 40.44L707.18 45.97L755.8 -0.02L758 -0.02L708.11 47.18L708.86 48.14L672.29 13.54L635.71 48.15L636.47 47.18ZM586.58 -0.02L588.79 -0.02L635.39 44.07L634.45 45.27L586.58 -0.02ZM672.29 80.83L598.85 150.31L597.92 149.1L672.29 78.74L746.66 149.1L745.73 150.31L672.29 80.83ZM672.29 215.39L658.95 228.02L658.02 226.81L672.29 213.31L686.56 226.81L685.63 228.02L672.29 215.39ZM627.97 187.96L672.29 146.02L716.61 187.96L715.68 189.16L672.29 148.11L628.9 189.16L627.97 187.96ZM642.99 207.38L672.29 179.66L701.59 207.38L700.65 208.59L672.29 181.75L643.92 208.59L642.99 207.38ZM672.29 47.19L583.83 130.88L582.9 129.67L672.29 45.1L761.68 129.67L760.75 130.88L672.29 47.19ZM694.17 24.64L720.24 -0.02L722.44 -0.02L695.1 25.85L694.17 24.64ZM679.15 5.21L684.68 -0.02L686.89 -0.02L680.08 6.42L679.15 5.21ZM768.53 57.3L740.17 84.13L739.24 82.92L768.53 55.22L797.81 82.92L796.88 84.13L768.53 57.3ZM694.17 273.56L768.52 203.21L842.88 273.56L841.95 274.77L768.53 205.3L695.1 274.77L694.17 273.56ZM768.53 171.66L680.08 255.34L679.15 254.13L768.52 169.57L857.91 254.13L856.98 255.34L768.53 171.66ZM561.79 102.35L576.05 88.86L590.31 102.35L589.38 103.56L576.05 90.95L562.72 103.56L561.79 102.35ZM531.74 63.5L576.05 21.57L620.36 63.5L619.43 64.7L576.05 23.66L532.67 64.7L531.74 63.5ZM657.69 -0.02L659.9 -0.02L665.43 5.21L664.5 6.42L657.69 -0.02ZM622.13 -0.02L624.34 -0.02L650.41 24.64L649.48 25.85L622.13 -0.02ZM828.94 47.18L827.26 45.59L829.08 46.99L834.27 40.28L864.76 11.46L895.4 40.44L899.66 45.97L948.27 -0.02L950.48 -0.02L900.59 47.18L901.34 48.14L864.76 13.54L828.19 48.15L828.94 47.18ZM779.05 -0.02L781.26 -0.02L827.86 44.07L826.93 45.27L779.05 -0.02ZM864.76 80.83L791.32 150.31L790.39 149.1L864.76 78.74L939.13 149.1L938.2 150.31L864.76 80.83ZM864.76 215.39L851.42 228.02L850.49 226.81L864.76 213.31L879.04 226.81L878.11 228.02L864.76 215.39ZM864.76 148.11L821.37 189.16L820.44 187.96L864.76 146.02L909.09 187.96L908.15 189.16L864.76 148.11ZM835.47 207.38L864.76 179.66L894.06 207.38L893.13 208.59L864.76 181.75L836.4 208.59L835.47 207.38ZM864.76 47.19L776.3 130.88L775.37 129.67L864.76 45.1L954.16 129.67L953.22 130.88L864.76 47.19ZM886.64 24.64L912.71 -0.02L914.92 -0.02L887.57 25.85L886.64 24.64ZM871.62 5.21L877.15 -0.02L879.36 -0.02L872.55 6.42L871.62 5.21ZM961 57.3L932.64 84.13L931.72 82.92L961 55.22L990.28 82.92L989.35 84.13L961 57.3ZM886.64 273.56L961 203.21L1035.36 273.56L1034.42 274.77L961 205.3L887.57 274.77L886.64 273.56ZM961 171.66L872.55 255.34L871.62 254.13L961 169.57L1050.38 254.13L1049.45 255.34L961 171.66ZM754.26 102.35L768.53 88.86L782.79 102.35L781.86 103.56L768.53 90.95L755.2 103.56L754.26 102.35ZM724.22 63.5L768.52 21.57L812.84 63.5L811.9 64.7L768.53 23.66L725.15 64.7L724.22 63.5ZM850.17 -0.02L852.37 -0.02L857.91 5.21L856.98 6.42L850.17 -0.02ZM814.61 -0.02L816.81 -0.02L842.88 24.64L841.95 25.84L814.61 -0.02ZM1021.41 47.18L1019.74 45.59L1021.56 46.99L1026.74 40.28L1057.24 11.46L1087.87 40.44L1092.13 45.97L1140.74 -0.02L1142.95 -0.02L1093.06 47.18L1093.81 48.14L1057.24 13.54L1020.66 48.15L1021.41 47.18ZM971.52 -0.02L973.73 -0.02L1020.33 44.07L1019.4 45.27L971.52 -0.02ZM982.87 149.1L1057.24 78.74L1131.6 149.1L1130.67 150.31L1057.24 80.83L983.8 150.31L982.87 149.1ZM1057.24 215.39L1043.89 228.02L1042.96 226.81L1057.24 213.31L1071.51 226.81L1070.58 228.02L1057.24 215.39ZM1012.91 187.96L1057.24 146.02L1101.56 187.96L1100.63 189.16L1057.24 148.11L1013.85 189.16L1012.91 187.96ZM1027.94 207.38L1057.24 179.66L1086.53 207.38L1085.6 208.59L1057.24 181.75L1028.87 208.59L1027.94 207.38ZM1057.24 47.19L968.78 130.88L967.84 129.67L1057.24 45.1L1146.63 129.67L1145.7 130.88L1057.24 47.19ZM1079.12 24.64L1105.18 -0.02L1107.39 -0.02L1080.05 25.85L1079.12 24.64ZM1064.09 5.21L1069.63 -0.02L1071.83 -0.02L1065.02 6.42L1064.09 5.21ZM1153.47 57.3L1125.12 84.13L1124.19 82.92L1153.47 55.22L1182.76 82.92L1181.83 84.13L1153.47 57.3ZM1079.12 273.56L1153.47 203.21L1227.83 273.56L1226.9 274.77L1153.47 205.3L1080.05 274.77L1079.12 273.56ZM1153.47 171.66L1065.02 255.34L1064.09 254.13L1153.47 169.57L1242.86 254.13L1241.92 255.34L1153.47 171.66ZM946.74 102.35L961 88.86L975.26 102.35L974.33 103.56L961 90.95L947.67 103.56L946.74 102.35ZM916.69 63.5L961 21.57L1005.31 63.5L1004.38 64.7L961 23.66L917.62 64.7L916.69 63.5ZM1042.64 -0.02L1044.85 -0.02L1050.38 5.21L1049.45 6.42L1042.64 -0.02ZM1007.08 -0.02L1009.29 -0.02L1035.36 24.64L1034.42 25.85L1007.08 -0.02ZM1213.89 47.18L1164 -0.02L1166.2 -0.02L1214.82 45.97L1219.22 40.28L1249.71 11.46L1280.34 40.44L1284.6 45.97L1333.22 -0.02L1335.42 -0.02L1285.53 47.18L1286.27 48.13L1249.71 13.54L1213.14 48.15L1213.89 47.18ZM1175.34 149.1L1249.71 78.74L1324.08 149.1L1323.15 150.31L1249.71 80.83L1176.27 150.31L1175.34 149.1ZM1235.44 226.81L1249.71 213.31L1263.98 226.81L1263.05 228.02L1249.71 215.39L1236.37 228.02L1235.44 226.81ZM1249.71 148.11L1206.32 189.16L1205.39 187.96L1249.71 146.02L1294.03 187.96L1293.1 189.16L1249.71 148.11ZM1220.41 207.38L1249.71 179.66L1279.01 207.38L1278.08 208.59L1249.71 181.75L1221.34 208.59L1220.41 207.38ZM1249.71 47.19L1161.25 130.88L1160.32 129.67L1249.71 45.1L1339.1 129.67L1338.17 130.88L1249.71 47.19ZM1271.59 24.64L1297.66 -0.02L1299.86 -0.02L1272.52 25.85L1271.59 24.64ZM1256.56 5.21L1262.1 -0.02L1264.31 -0.02L1257.5 6.42L1256.56 5.21ZM1345.95 57.3L1317.59 84.13L1316.66 82.92L1345.86 55.29L1345.94 55.38L1346.02 55.28L1375.23 82.92L1374.3 84.13L1345.95 57.3ZM1271.59 273.56L1345.92 203.23L1345.94 203.25L1345.96 203.22L1420.3 273.56L1419.37 274.77L1345.95 205.3L1272.52 274.77L1271.59 273.56ZM1345.95 171.66L1257.5 255.34L1256.56 254.13L1345.92 169.59L1345.94 169.61L1345.96 169.58L1435.33 254.13L1434.4 255.34L1345.95 171.66ZM1139.21 102.35L1153.48 88.86L1167.74 102.35L1166.8 103.56L1153.47 90.95L1140.14 103.56L1139.21 102.35ZM1153.47 23.66L1110.1 64.7L1109.16 63.5L1153.47 21.57L1197.78 63.5L1196.85 64.7L1153.47 23.66ZM1235.11 -0.02L1237.32 -0.02L1242.86 5.21L1241.92 6.42L1235.11 -0.02ZM1199.56 -0.02L1201.76 -0.02L1227.83 24.64L1226.9 25.85L1199.56 -0.02ZM1442.18 13.54L1405.62 48.14L1406.36 47.18L1356.47 -0.02L1358.68 -0.02L1407.29 45.97L1411.69 40.28L1442.18 11.46L1472.82 40.44L1477.07 45.97L1525.69 -0.02L1527.9 -0.02L1478.01 47.18L1478.75 48.14L1442.18 13.54ZM1442.18 80.83L1368.75 150.31L1367.81 149.1L1442.18 78.74L1516.55 149.1L1515.62 150.31L1442.18 80.83ZM1442.18 215.39L1428.84 228.02L1427.91 226.81L1442.18 213.31L1456.46 226.81L1455.52 228.02L1442.18 215.39ZM1442.18 148.11L1398.79 189.16L1397.86 187.96L1442.18 146.02L1486.5 187.96L1485.57 189.16L1442.18 148.11ZM1442.18 181.75L1413.82 208.59L1412.89 207.38L1442.18 179.66L1471.48 207.38L1470.55 208.59L1442.18 181.75ZM1442.18 47.19L1353.72 130.88L1352.79 129.67L1442.18 45.1L1531.58 129.67L1530.64 130.88L1442.18 47.19ZM1464.06 24.64L1490.13 -0.02L1492.34 -0.02L1464.99 25.84L1464.06 24.64ZM1449.04 5.21L1454.57 -0.02L1456.78 -0.02L1449.97 6.42L1449.04 5.21ZM1538.42 57.3L1510.07 84.13L1509.13 82.92L1538.34 55.29L1538.41 55.38L1538.49 55.28L1567.71 82.92L1566.77 84.13L1538.42 57.3ZM1538.42 205.3L1464.99 274.77L1464.06 273.56L1538.4 203.23L1538.41 203.25L1538.43 203.22L1612.78 273.56L1611.85 274.77L1538.42 205.3ZM1538.42 171.66L1449.97 255.34L1449.04 254.13L1538.4 169.59L1538.41 169.61L1538.43 169.58L1627.8 254.13L1626.87 255.34L1538.42 171.66ZM1331.69 102.35L1345.92 88.88L1345.94 88.9L1345.96 88.87L1360.21 102.35L1359.28 103.56L1345.95 90.95L1332.62 103.56L1331.69 102.35ZM1345.95 23.66L1302.57 64.7L1301.64 63.5L1345.86 21.65L1345.94 21.74L1346.02 21.64L1390.26 63.5L1389.32 64.7L1345.95 23.66ZM1427.59 -0.02L1429.79 -0.02L1435.33 5.21L1434.4 6.42L1427.59 -0.02ZM1392.03 -0.02L1394.24 -0.02L1420.3 24.64L1419.37 25.85L1392.03 -0.02ZM94.87 329.75L21.43 399.23L20.5 398.02L94.87 327.66L169.24 398.02L168.31 399.23L94.87 329.75ZM80.59 475.73L94.87 462.23L109.14 475.73L108.21 476.94L94.87 464.31L81.53 476.94L80.59 475.73ZM50.55 436.88L94.87 394.94L139.19 436.88L138.26 438.08L94.87 397.03L51.48 438.08L50.55 436.88ZM94.87 430.67L66.5 457.51L65.57 456.3L94.87 428.58L124.17 456.3L123.24 457.51L94.87 430.67ZM94.87 296.11L6.41 379.8L5.48 378.59L94.87 294.02L184.26 378.59L183.33 379.8L94.87 296.11ZM191.11 339.87L177.78 352.48L176.84 351.27L191.11 337.78L205.37 351.27L204.44 352.48L191.11 339.87ZM191.11 272.58L147.73 313.62L146.8 312.42L191.11 270.49L235.41 312.42L234.48 313.62L191.11 272.58ZM191.11 306.22L162.75 333.05L161.82 331.84L191.11 304.14L220.39 331.84L219.46 333.05L191.11 306.22ZM116.75 522.48L191.11 452.13L265.46 522.48L264.53 523.69L191.11 454.22L117.68 523.69L116.75 522.48ZM101.72 503.05L191.11 418.49L280.49 503.05L279.56 504.26L191.11 420.58L102.66 504.26L101.72 503.05ZM0 341.16L0 339.07L12.9 351.27L11.96 352.48L0 341.16ZM0 273.88L0 271.79L42.94 312.42L42.01 313.62L0 273.88ZM0 307.52L0 305.43L27.92 331.84L26.99 333.05L0 307.52ZM0 421.87L0 419.78L88.01 503.05L87.08 504.26L0 421.87ZM0 455.51L0 453.42L72.99 522.48L72.06 523.69L0 455.51ZM287.34 329.75L213.91 399.23L212.97 398.02L287.34 327.66L361.71 398.02L360.78 399.23L287.34 329.75ZM273.07 475.73L287.34 462.23L301.62 475.73L300.68 476.94L287.34 464.31L274 476.94L273.07 475.73ZM287.34 397.03L243.95 438.08L243.02 436.88L287.34 394.94L331.67 436.88L330.73 438.08L287.34 397.03ZM258.04 456.3L287.34 428.58L316.64 456.3L315.71 457.51L287.34 430.67L258.98 457.51L258.04 456.3ZM287.34 296.11L198.88 379.8L197.95 378.59L287.34 294.02L376.74 378.59L375.8 379.8L287.34 296.11ZM383.58 339.87L370.25 352.48L369.32 351.27L383.58 337.78L397.84 351.27L396.91 352.48L383.58 339.87ZM383.58 272.58L340.2 313.62L339.27 312.42L383.58 270.49L427.89 312.42L426.96 313.62L383.58 272.58ZM383.58 306.22L355.23 333.05L354.29 331.84L383.58 304.14L412.87 331.84L411.93 333.05L383.58 306.22ZM309.22 522.48L383.58 452.13L457.94 522.48L457.01 523.69L383.58 454.22L310.15 523.69L309.22 522.48ZM294.2 503.05L383.58 418.49L472.96 503.05L472.03 504.26L383.58 420.58L295.13 504.26L294.2 503.05ZM479.82 329.75L406.38 399.23L405.45 398.02L479.82 327.66L554.19 398.02L553.25 399.23L479.82 329.75ZM479.82 464.31L466.47 476.94L465.54 475.73L479.82 462.23L494.09 475.73L493.16 476.94L479.82 464.31ZM479.82 397.03L436.42 438.08L435.49 436.88L479.82 394.94L524.14 436.88L523.21 438.08L479.82 397.03ZM450.52 456.3L479.82 428.58L509.11 456.3L508.18 457.51L479.82 430.67L451.45 457.51L450.52 456.3ZM390.42 378.59L479.82 294.02L569.21 378.59L568.28 379.8L479.82 296.11L391.36 379.8L390.42 378.59ZM561.79 351.27L576.05 337.78L590.31 351.27L589.38 352.48L576.05 339.87L562.72 352.48L561.79 351.27ZM576.05 272.58L532.67 313.62L531.74 312.42L576.05 270.49L620.36 312.42L619.43 313.62L576.05 272.58ZM576.05 306.22L547.7 333.05L546.77 331.84L576.05 304.14L605.34 331.84L604.41 333.05L576.05 306.22ZM501.69 522.48L576.05 452.13L650.41 522.48L649.48 523.69L576.05 454.22L502.63 523.69L501.69 522.48ZM486.67 503.05L576.05 418.49L665.43 503.05L664.5 504.26L576.05 420.58L487.6 504.26L486.67 503.05ZM672.29 329.75L598.85 399.23L597.92 398.02L672.29 327.66L746.66 398.02L745.73 399.23L672.29 329.75ZM672.29 464.31L658.95 476.94L658.02 475.73L672.29 462.23L686.56 475.73L685.63 476.94L672.29 464.31ZM627.97 436.88L672.29 394.94L716.61 436.88L715.68 438.08L672.29 397.03L628.9 438.08L627.97 436.88ZM642.99 456.3L672.29 428.58L701.59 456.3L700.65 457.51L672.29 430.67L643.92 457.51L642.99 456.3ZM672.29 296.11L583.83 379.8L582.9 378.59L672.29 294.02L761.68 378.59L760.75 379.8L672.29 296.11ZM754.26 351.27L768.52 337.78L782.79 351.27L781.86 352.48L768.53 339.87L755.2 352.48L754.26 351.27ZM768.53 272.58L725.15 313.62L724.22 312.42L768.52 270.49L812.84 312.42L811.9 313.62L768.53 272.58ZM768.53 306.22L740.17 333.05L739.24 331.84L768.53 304.14L797.81 331.84L796.88 333.05L768.53 306.22ZM694.17 522.48L768.52 452.13L842.88 522.48L841.95 523.68L768.53 454.22L695.1 523.69L694.17 522.48ZM679.15 503.05L768.52 418.49L857.91 503.05L856.98 504.26L768.53 420.58L680.08 504.26L679.15 503.05ZM864.76 329.75L791.32 399.23L790.39 398.02L864.76 327.66L939.13 398.02L938.2 399.23L864.76 329.75ZM864.76 464.31L851.42 476.94L850.49 475.73L864.76 462.23L879.04 475.73L878.11 476.94L864.76 464.31ZM864.76 397.03L821.37 438.08L820.44 436.88L864.76 394.94L909.09 436.88L908.15 438.08L864.76 397.03ZM835.47 456.3L864.76 428.58L894.06 456.3L893.13 457.51L864.76 430.67L836.4 457.51L835.47 456.3ZM864.76 296.11L776.3 379.8L775.37 378.59L864.76 294.02L954.16 378.59L953.22 379.8L864.76 296.11ZM961 339.87L947.67 352.48L946.74 351.27L961 337.78L975.26 351.27L974.33 352.48L961 339.87ZM961 272.58L917.62 313.62L916.69 312.42L961 270.49L1005.31 312.42L1004.38 313.62L961 272.58ZM961 306.22L932.64 333.05L931.72 331.84L961 304.14L990.28 331.84L989.35 333.05L961 306.22ZM886.64 522.48L961 452.13L1035.36 522.48L1034.42 523.69L961 454.22L887.57 523.69L886.64 522.48ZM871.62 503.05L961 418.49L1050.38 503.05L1049.45 504.26L961 420.58L872.55 504.26L871.62 503.05ZM982.87 398.02L1057.24 327.66L1131.6 398.02L1130.67 399.23L1057.24 329.75L983.8 399.23L982.87 398.02ZM1057.24 464.31L1043.89 476.94L1042.96 475.73L1057.24 462.23L1071.51 475.73L1070.58 476.94L1057.24 464.31ZM1012.91 436.88L1057.24 394.94L1101.56 436.88L1100.63 438.08L1057.24 397.03L1013.85 438.08L1012.91 436.88ZM1027.94 456.3L1057.24 428.58L1086.53 456.3L1085.6 457.51L1057.24 430.67L1028.87 457.51L1027.94 456.3ZM1057.24 296.11L968.78 379.8L967.84 378.59L1057.24 294.02L1146.63 378.59L1145.7 379.8L1057.24 296.11ZM1153.47 339.87L1140.14 352.48L1139.21 351.27L1153.47 337.78L1167.74 351.27L1166.8 352.48L1153.47 339.87ZM1153.47 272.58L1110.1 313.62L1109.16 312.42L1153.47 270.49L1197.78 312.42L1196.85 313.62L1153.47 272.58ZM1153.47 306.22L1125.12 333.05L1124.19 331.84L1153.47 304.14L1182.76 331.84L1181.83 333.05L1153.47 306.22ZM1079.12 522.48L1153.47 452.13L1227.83 522.48L1226.9 523.69L1153.47 454.22L1080.05 523.69L1079.12 522.48ZM1064.09 503.05L1153.47 418.49L1242.86 503.05L1241.92 504.26L1153.47 420.58L1065.02 504.26L1064.09 503.05ZM1175.34 398.02L1249.71 327.66L1324.08 398.02L1323.15 399.23L1249.71 329.75L1176.27 399.23L1175.34 398.02ZM1235.44 475.73L1249.71 462.23L1263.98 475.73L1263.05 476.94L1249.71 464.31L1236.37 476.94L1235.44 475.73ZM1249.71 397.03L1206.32 438.08L1205.39 436.88L1249.71 394.94L1294.03 436.88L1293.1 438.08L1249.71 397.03ZM1220.41 456.3L1249.71 428.58L1279.01 456.3L1278.08 457.51L1249.71 430.67L1221.34 457.51L1220.41 456.3ZM1249.71 296.11L1161.25 379.8L1160.32 378.59L1249.71 294.02L1339.1 378.59L1338.17 379.8L1249.71 296.11ZM1345.95 339.87L1332.62 352.48L1331.69 351.27L1345.92 337.8L1345.94 337.82L1345.96 337.79L1360.21 351.27L1359.28 352.48L1345.95 339.87ZM1345.95 272.58L1302.57 313.62L1301.64 312.42L1345.92 270.52L1345.94 270.53L1345.96 270.51L1390.26 312.42L1389.32 313.62L1345.95 272.58ZM1345.95 306.22L1317.59 333.05L1316.66 331.84L1345.92 304.16L1345.94 304.17L1345.96 304.15L1375.23 331.84L1374.3 333.05L1345.95 306.22ZM1271.59 522.48L1345.92 452.15L1345.94 452.17L1345.96 452.14L1420.3 522.48L1419.37 523.69L1345.95 454.22L1272.52 523.69L1271.59 522.48ZM1256.56 503.05L1345.92 418.51L1345.94 418.53L1345.96 418.5L1435.33 503.05L1434.4 504.26L1345.95 420.58L1257.5 504.26L1256.56 503.05ZM1442.18 329.75L1368.75 399.23L1367.81 398.02L1442.18 327.66L1516.55 398.02L1515.62 399.23L1442.18 329.75ZM1442.18 464.31L1428.84 476.94L1427.91 475.73L1442.18 462.23L1456.46 475.73L1455.52 476.94L1442.18 464.31ZM1442.18 397.03L1398.79 438.08L1397.86 436.88L1442.18 394.94L1486.5 436.88L1485.57 438.08L1442.18 397.03ZM1442.18 430.67L1413.82 457.51L1412.89 456.3L1442.18 428.58L1471.48 456.3L1470.55 457.51L1442.18 430.67ZM1442.18 296.11L1353.72 379.8L1352.79 378.59L1442.18 294.02L1531.58 378.59L1530.64 379.8L1442.18 296.11ZM1538.42 339.87L1525.09 352.48L1524.16 351.27L1538.4 337.8L1538.41 337.82L1538.43 337.79L1552.68 351.27L1551.75 352.48L1538.42 339.87ZM1538.42 272.58L1495.04 313.62L1494.11 312.42L1538.4 270.52L1538.41 270.53L1538.43 270.51L1582.73 312.42L1581.8 313.62L1538.42 272.58ZM1538.42 306.22L1510.07 333.05L1509.13 331.84L1538.4 304.16L1538.41 304.17L1538.43 304.15L1567.71 331.84L1566.77 333.05L1538.42 306.22ZM1538.42 454.22L1464.99 523.68L1464.06 522.48L1538.4 452.15L1538.41 452.17L1538.43 452.14L1612.78 522.48L1611.85 523.69L1538.42 454.22ZM1449.04 503.05L1538.4 418.51L1538.41 418.53L1538.43 418.5L1627.8 503.05L1626.87 504.26L1538.42 420.58L1449.97 504.26L1449.04 503.05ZM94.87 578.67L21.43 648.15L20.5 646.94L94.87 576.58L169.24 646.94L168.31 648.15L94.87 578.67ZM80.59 724.65L94.87 711.15L109.14 724.65L108.21 725.86L94.87 713.23L81.53 725.86L80.59 724.65ZM50.55 685.8L94.87 643.86L139.19 685.8L138.26 687L94.87 645.95L51.48 687L50.55 685.8ZM94.87 679.59L66.5 706.43L65.57 705.22L94.87 677.5L124.17 705.22L123.24 706.43L94.87 679.59ZM94.87 545.03L6.41 628.72L5.48 627.51L94.87 542.94L184.26 627.51L183.33 628.72L94.87 545.03ZM176.84 600.19L191.11 586.7L205.37 600.19L204.44 601.4L191.11 588.79L177.78 601.4L176.84 600.19ZM146.8 561.34L191.02 519.49L191.04 519.51L191.12 519.43L235.41 561.34L234.48 562.54L191.11 521.5L147.73 562.54L146.8 561.34ZM191.11 555.14L162.75 581.97L161.82 580.76L191.02 553.13L191.04 553.15L191.12 553.07L220.39 580.76L219.46 581.97L191.11 555.14ZM234.28 743.99L191.11 703.14L147.93 743.99L145.73 743.99L191.11 701.05L236.49 743.99L234.28 743.99ZM198.72 743.99L191.11 736.78L183.49 743.99L181.28 743.99L191.11 734.69L200.93 743.99L198.72 743.99ZM269.84 743.99L191.11 669.5L112.37 743.99L110.17 743.99L191.11 667.41L272.04 743.99L269.84 743.99ZM0 590.08L0 587.99L12.9 600.19L11.96 601.4L0 590.08ZM0 522.8L0 520.71L42.94 561.34L42.01 562.54L0 522.8ZM0 556.44L0 554.35L27.92 580.76L26.99 581.97L0 556.44ZM77.36 743.99L0 670.79L0 668.7L79.57 743.99L77.36 743.99ZM6.25 743.99L0 738.07L0 735.99L8.45 743.99L6.25 743.99ZM41.8 743.99L0 704.43L0 702.34L44.01 743.99L41.8 743.99ZM287.34 578.67L213.91 648.15L212.97 646.94L287.34 576.58L361.71 646.94L360.78 648.15L287.34 578.67ZM273.07 724.65L287.34 711.15L301.62 724.65L300.68 725.86L287.34 713.23L274 725.86L273.07 724.65ZM287.34 645.95L243.95 687L243.02 685.8L287.34 643.86L331.67 685.8L330.73 687L287.34 645.95ZM258.04 705.22L287.34 677.5L316.64 705.22L315.71 706.43L287.34 679.59L258.98 706.43L258.04 705.22ZM287.34 545.03L198.88 628.72L197.95 627.51L287.34 542.94L376.74 627.51L375.8 628.72L287.34 545.03ZM383.58 588.79L370.25 601.4L369.32 600.19L383.58 586.7L397.84 600.19L396.91 601.4L383.58 588.79ZM339.27 561.34L383.55 519.44L383.63 519.51L383.65 519.48L427.89 561.34L426.96 562.54L383.58 521.5L340.2 562.54L339.27 561.34ZM383.58 555.14L355.23 581.97L354.29 580.76L383.55 553.08L383.63 553.15L383.65 553.12L412.87 580.76L411.93 581.97L383.58 555.14ZM426.75 743.99L383.58 703.14L340.41 743.99L338.2 743.99L383.58 701.05L428.96 743.99L426.75 743.99ZM391.19 743.99L383.58 736.78L375.96 743.99L373.76 743.99L383.58 734.69L393.4 743.99L391.19 743.99ZM462.31 743.99L383.58 669.5L304.85 743.99L302.64 743.99L383.58 667.41L464.52 743.99L462.31 743.99ZM479.82 578.67L406.38 648.15L405.45 646.94L479.82 576.58L554.19 646.94L553.25 648.15L479.82 578.67ZM479.82 713.23L466.47 725.86L465.54 724.65L479.82 711.15L494.09 724.65L493.16 725.86L479.82 713.23ZM479.82 645.95L436.42 687L435.49 685.8L479.82 643.86L524.14 685.8L523.21 687L479.82 645.95ZM450.52 705.22L479.82 677.5L509.11 705.22L508.18 706.43L479.82 679.59L451.45 706.43L450.52 705.22ZM390.42 627.51L479.82 542.94L569.21 627.51L568.28 628.72L479.82 545.03L391.36 628.72L390.42 627.51ZM561.79 600.19L576.05 586.7L590.31 600.19L589.38 601.4L576.05 588.79L562.72 601.4L561.79 600.19ZM531.74 561.34L576.05 519.41L620.36 561.34L619.43 562.54L576.05 521.5L532.67 562.54L531.74 561.34ZM576.05 555.14L547.7 581.97L546.77 580.76L576.05 553.06L605.34 580.76L604.41 581.97L576.05 555.14ZM619.23 743.99L576.05 703.14L532.88 743.99L530.67 743.99L576.05 701.05L621.43 743.99L619.23 743.99ZM583.67 743.99L576.05 736.78L568.44 743.99L566.23 743.99L576.05 734.69L585.87 743.99L583.67 743.99ZM654.78 743.99L576.05 669.5L497.32 743.99L495.11 743.99L576.05 667.41L656.99 743.99L654.78 743.99ZM672.29 578.67L598.85 648.15L597.92 646.94L672.29 576.58L746.66 646.94L745.73 648.15L672.29 578.67ZM672.29 713.23L658.95 725.86L658.02 724.65L672.29 711.15L686.56 724.65L685.63 725.86L672.29 713.23ZM627.97 685.8L672.29 643.86L716.61 685.8L715.68 687L672.29 645.95L628.9 687L627.97 685.8ZM642.99 705.22L672.29 677.5L701.59 705.22L700.65 706.43L672.29 679.59L643.92 706.43L642.99 705.22ZM672.29 545.03L583.83 628.72L582.9 627.51L672.29 542.94L761.68 627.51L760.75 628.72L672.29 545.03ZM754.26 600.19L768.53 586.7L782.79 600.19L781.86 601.4L768.53 588.79L755.2 601.4L754.26 600.19ZM724.22 561.34L768.52 519.41L812.84 561.34L811.9 562.54L768.53 521.5L725.15 562.54L724.22 561.34ZM768.53 555.14L740.17 581.97L739.24 580.76L768.53 553.06L797.81 580.76L796.88 581.97L768.53 555.14ZM811.7 743.99L768.53 703.14L725.35 743.99L723.15 743.99L768.52 701.05L813.91 743.99L811.7 743.99ZM776.14 743.99L768.53 736.78L760.91 743.99L758.7 743.99L768.52 734.69L778.35 743.99L776.14 743.99ZM847.26 743.99L768.53 669.5L689.79 743.99L687.59 743.99L768.52 667.41L849.47 743.99L847.26 743.99ZM864.76 578.67L791.32 648.15L790.39 646.94L864.76 576.58L939.13 646.94L938.2 648.15L864.76 578.67ZM864.76 713.23L851.42 725.86L850.49 724.65L864.76 711.15L879.04 724.65L878.11 725.86L864.76 713.23ZM864.76 645.95L821.37 687L820.44 685.8L864.76 643.86L909.09 685.8L908.15 687L864.76 645.95ZM835.47 705.22L864.76 677.5L894.06 705.22L893.13 706.43L864.76 679.59L836.4 706.43L835.47 705.22ZM864.76 545.03L776.3 628.72L775.37 627.51L864.76 542.94L954.16 627.51L953.22 628.72L864.76 545.03ZM946.74 600.19L961 586.7L975.26 600.19L974.33 601.4L961 588.79L947.67 601.4L946.74 600.19ZM916.69 561.34L961 519.41L1005.31 561.34L1004.38 562.54L961 521.5L917.62 562.54L916.69 561.34ZM961 555.14L932.64 581.97L931.72 580.76L961 553.06L990.28 580.76L989.35 581.97L961 555.14ZM1004.17 743.99L961 703.14L917.83 743.99L915.62 743.99L961 701.05L1006.38 743.99L1004.17 743.99ZM968.61 743.99L961 736.78L953.39 743.99L951.18 743.99L961 734.69L970.82 743.99L968.61 743.99ZM1039.73 743.99L961 669.5L882.27 743.99L880.06 743.99L961 667.41L1041.94 743.99L1039.73 743.99ZM982.87 646.94L1057.24 576.58L1131.6 646.94L1130.67 648.15L1057.24 578.67L983.8 648.15L982.87 646.94ZM1057.24 713.23L1043.89 725.86L1042.96 724.65L1057.24 711.15L1071.51 724.65L1070.58 725.86L1057.24 713.23ZM1012.91 685.8L1057.24 643.86L1101.56 685.8L1100.63 687L1057.24 645.95L1013.85 687L1012.91 685.8ZM1027.94 705.22L1057.24 677.5L1086.53 705.22L1085.6 706.43L1057.24 679.59L1028.87 706.43L1027.94 705.22ZM1057.24 545.03L968.78 628.72L967.84 627.51L1057.24 542.94L1146.63 627.51L1145.7 628.72L1057.24 545.03ZM1139.21 600.19L1153.48 586.7L1167.74 600.19L1166.8 601.4L1153.47 588.79L1140.14 601.4L1139.21 600.19ZM1153.47 521.5L1110.1 562.54L1109.16 561.34L1153.47 519.41L1197.78 561.34L1196.85 562.54L1153.47 521.5ZM1153.47 555.14L1125.12 581.97L1124.19 580.76L1153.47 553.06L1182.76 580.76L1181.83 581.97L1153.47 555.14ZM1196.65 743.99L1153.47 703.14L1110.3 743.99L1108.09 743.99L1153.47 701.05L1198.85 743.99L1196.65 743.99ZM1161.09 743.99L1153.47 736.78L1145.86 743.99L1143.65 743.99L1153.47 734.69L1163.3 743.99L1161.09 743.99ZM1232.21 743.99L1153.47 669.5L1074.74 743.99L1072.53 743.99L1153.47 667.41L1234.41 743.99L1232.21 743.99ZM1175.34 646.94L1249.71 576.58L1324.08 646.94L1323.15 648.15L1249.71 578.67L1176.27 648.15L1175.34 646.94ZM1235.44 724.65L1249.71 711.15L1263.98 724.65L1263.05 725.86L1249.71 713.23L1236.37 725.86L1235.44 724.65ZM1249.71 645.95L1206.32 687L1205.39 685.8L1249.71 643.86L1294.03 685.8L1293.1 687L1249.71 645.95ZM1220.41 705.22L1249.71 677.5L1279.01 705.22L1278.08 706.43L1249.71 679.59L1221.34 706.43L1220.41 705.22ZM1249.71 545.03L1161.25 628.72L1160.32 627.51L1249.71 542.94L1339.1 627.51L1338.17 628.72L1249.71 545.03ZM1331.69 600.19L1345.92 586.72L1345.94 586.74L1345.96 586.71L1360.21 600.19L1359.28 601.4L1345.95 588.79L1332.62 601.4L1331.69 600.19ZM1345.95 521.5L1302.57 562.54L1301.64 561.34L1345.86 519.49L1345.94 519.58L1346.02 519.48L1390.26 561.34L1389.32 562.54L1345.95 521.5ZM1345.95 555.14L1317.59 581.97L1316.66 580.76L1345.86 553.13L1345.94 553.22L1346.02 553.13L1375.23 580.76L1374.3 581.97L1345.95 555.14ZM1389.12 743.99L1345.95 703.14L1302.77 743.99L1300.57 743.99L1345.92 701.07L1345.94 701.09L1345.96 701.06L1391.33 743.99L1389.12 743.99ZM1353.56 743.99L1345.95 736.78L1338.33 743.99L1336.13 743.99L1345.92 734.72L1345.94 734.73L1345.96 734.71L1355.77 743.99L1353.56 743.99ZM1424.68 743.99L1345.95 669.5L1267.22 743.99L1265.01 743.99L1345.92 667.43L1345.94 667.45L1345.96 667.42L1426.88 743.99L1424.68 743.99ZM1442.18 578.67L1368.75 648.15L1367.81 646.94L1442.18 576.58L1516.55 646.94L1515.62 648.15L1442.18 578.67ZM1442.18 713.23L1428.84 725.86L1427.91 724.65L1442.18 711.15L1456.46 724.65L1455.52 725.86L1442.18 713.23ZM1442.18 645.95L1398.79 687L1397.86 685.8L1442.18 643.86L1486.5 685.8L1485.57 687L1442.18 645.95ZM1442.18 679.59L1413.82 706.43L1412.89 705.22L1442.18 677.5L1471.48 705.22L1470.55 706.43L1442.18 679.59ZM1442.18 545.03L1353.72 628.72L1352.79 627.51L1442.18 542.94L1531.58 627.51L1530.64 628.72L1442.18 545.03ZM1538.42 588.79L1525.09 601.4L1524.16 600.19L1538.4 586.72L1538.41 586.74L1538.43 586.71L1552.68 600.19L1551.75 601.4L1538.42 588.79ZM1538.42 521.5L1495.04 562.54L1494.11 561.34L1538.34 519.49L1538.41 519.58L1538.49 519.48L1582.73 561.34L1581.8 562.54L1538.42 521.5ZM1538.42 555.14L1510.07 581.97L1509.13 580.76L1538.34 553.13L1538.41 553.22L1538.49 553.13L1567.71 580.76L1566.77 581.97L1538.42 555.14ZM1581.59 743.99L1538.42 703.14L1495.25 743.99L1493.04 743.99L1538.4 701.07L1538.41 701.09L1538.43 701.06L1583.8 743.99L1581.59 743.99ZM1546.04 743.99L1538.42 736.78L1530.81 743.99L1528.6 743.99L1538.4 734.72L1538.41 734.73L1538.43 734.71L1548.24 743.99L1546.04 743.99ZM1617.15 743.99L1538.42 669.5L1459.69 743.99L1457.48 743.99L1538.4 667.43L1538.41 667.45L1538.43 667.42L1619.36 743.99L1617.15 743.99ZM1634.66 13.54L1598.09 48.14L1598.83 47.18L1597.17 45.6L1598.97 46.99L1604.17 40.28L1634.66 11.46L1665.29 40.44L1669.55 45.97L1718.16 -0.02L1720.37 -0.02L1670.48 47.18L1671.23 48.14L1634.66 13.54ZM1548.95 -0.02L1551.15 -0.02L1597.75 44.07L1596.82 45.27L1548.95 -0.02ZM1634.66 80.83L1561.22 150.31L1560.29 149.1L1634.66 78.74L1709.03 149.1L1708.09 150.31L1634.66 80.83ZM1634.66 215.39L1621.31 228.02L1620.38 226.81L1634.66 213.31L1648.93 226.81L1648 228.02L1634.66 215.39ZM1634.66 148.11L1591.27 189.16L1590.34 187.96L1634.66 146.02L1678.98 187.96L1678.05 189.16L1634.66 148.11ZM1634.66 181.75L1606.29 208.59L1605.36 207.38L1634.66 179.66L1663.96 207.38L1663.02 208.59L1634.66 181.75ZM1634.66 47.19L1546.19 130.88L1545.26 129.67L1634.66 45.1L1724.05 129.67L1723.12 130.88L1634.66 47.19ZM1656.53 24.64L1682.61 -0.02L1684.81 -0.02L1657.47 25.85L1656.53 24.64ZM1641.51 5.21L1647.05 -0.02L1649.25 -0.02L1642.44 6.42L1641.51 5.21ZM1701.61 82.92L1730.81 55.29L1730.88 55.38L1730.97 55.28L1760.18 82.92L1759.25 84.13L1730.89 57.3L1702.54 84.13L1701.61 82.92ZM1656.53 273.56L1730.87 203.23L1730.88 203.25L1730.91 203.23L1805.25 273.56L1804.32 274.77L1730.89 205.3L1657.47 274.77L1656.53 273.56ZM1641.51 254.13L1730.87 169.59L1730.88 169.61L1730.91 169.58L1820.27 254.13L1819.35 255.34L1730.89 171.66L1642.44 255.34L1641.51 254.13ZM1538.42 90.95L1525.09 103.56L1524.16 102.35L1538.4 88.88L1538.41 88.9L1538.43 88.87L1552.68 102.35L1551.75 103.56L1538.42 90.95ZM1538.42 23.66L1495.04 64.7L1494.11 63.5L1538.34 21.65L1538.41 21.74L1538.49 21.64L1582.73 63.5L1581.8 64.7L1538.42 23.66ZM1620.06 -0.02L1622.27 -0.02L1627.8 5.21L1626.87 6.42L1620.06 -0.02ZM1584.5 -0.02L1586.71 -0.02L1612.78 24.64L1611.85 25.85L1584.5 -0.02ZM1791.31 47.18L1789.63 45.59L1791.45 46.99L1796.64 40.28L1827.13 11.46L1857.76 40.44L1862.02 45.97L1910.64 -0.02L1912.84 -0.02L1862.95 47.18L1863.7 48.14L1827.13 13.54L1790.55 48.15L1791.31 47.18ZM1741.42 -0.02L1743.63 -0.02L1790.23 44.07L1789.29 45.27L1741.42 -0.02ZM1827.13 80.83L1753.69 150.31L1752.76 149.1L1827.13 78.74L1901.5 149.1L1900.57 150.31L1827.13 80.83ZM1827.13 215.39L1813.79 228.02L1812.86 226.81L1827.13 213.31L1841.4 226.81L1840.47 228.02L1827.13 215.39ZM1827.13 148.11L1783.74 189.16L1782.81 187.96L1827.13 146.02L1871.45 187.96L1870.52 189.16L1827.13 148.11ZM1797.83 207.38L1827.13 179.66L1856.43 207.38L1855.5 208.59L1827.13 181.75L1798.76 208.59L1797.83 207.38ZM1827.13 47.19L1738.67 130.88L1737.74 129.67L1827.13 45.1L1916.52 129.67L1915.59 130.88L1827.13 47.19ZM1909.1 102.35L1922 90.15L1922 92.24L1910.04 103.56L1909.1 102.35ZM1849.01 24.64L1875.08 -0.02L1877.28 -0.02L1849.94 25.85L1849.01 24.64ZM1833.99 5.21L1839.52 -0.02L1841.73 -0.02L1834.92 6.42L1833.99 5.21ZM1879.06 63.5L1922 22.87L1922 24.96L1879.99 64.7L1879.06 63.5ZM1894.08 82.92L1922 56.51L1922 58.6L1895.01 84.13L1894.08 82.92ZM1502.61 171.64L1442.18 114.47L1381.76 171.64L1382.51 172.6L1345.95 138.02L1309.38 172.61L1310.14 171.64L1249.71 114.47L1189.28 171.64L1190.03 172.6L1153.47 138.02L1116.91 172.61L1117.66 171.64L1057.24 114.47L996.81 171.64L997.57 172.61L961 138.02L924.43 172.61L925.19 171.64L864.76 114.47L804.34 171.64L805.09 172.61L768.53 138.02L731.95 172.62L732.71 171.64L672.29 114.47L611.86 171.64L612.62 172.61L576.05 138.02L539.48 172.61L540.24 171.64L479.82 114.47L419.39 171.64L420.14 172.61L383.58 138.02L347.01 172.61L347.77 171.64L287.34 114.47L226.92 171.64L227.67 172.61L191.11 138.02L154.54 172.61L155.29 171.64L94.87 114.47L34.45 171.64L35.2 172.61L0 139.31L0 137.22L29.25 164.9L30.75 166.86L33.51 170.43L94.87 112.38L154.22 168.53L153.47 169.49L155.66 171.17L160.63 164.74L191.11 135.93L221.73 164.9L223.22 166.86L225.99 170.43L287.34 112.38L348.7 170.43L350.37 168.27L353.1 164.74L383.58 135.93L414.2 164.9L418.46 170.43L479.82 112.38L539.16 168.53L538.39 169.53L540.57 171.21L545.57 164.74L576.05 135.93L606.68 164.9L608.17 166.86L610.93 170.43L672.29 112.38L733.65 170.43L737.98 164.82L768.52 135.93L799.15 164.9L800.64 166.86L803.41 170.43L864.76 112.38L926.12 170.43L928.85 166.9L930.52 164.74L961 135.93L991.62 164.9L993.12 166.86L995.88 170.43L1057.24 112.38L1118.59 170.43L1121.33 166.9L1122.99 164.74L1153.47 135.93L1184.1 164.9L1185.59 166.86L1188.35 170.43L1249.71 112.38L1311.06 170.43L1315.47 164.74L1345.92 135.95L1345.94 135.97L1345.96 135.94L1376.57 164.9L1380.83 170.43L1442.18 112.38L1503.54 170.43L1504.49 169.21L1507.94 164.74L1538.4 135.95L1538.41 135.97L1538.43 135.94L1569.04 164.9L1573.3 170.43L1634.66 112.38L1694 168.53L1693.07 169.73L1634.66 114.47L1574.23 171.64L1574.98 172.6L1538.42 138.02L1501.85 172.62L1502.61 171.64ZM1696.91 169.27L1700.42 164.74L1730.87 135.95L1730.88 135.97L1730.91 135.94L1761.52 164.9L1765.77 170.43L1827.13 112.38L1886.47 168.53L1885.54 169.73L1827.13 114.47L1766.7 171.64L1767.46 172.61L1730.89 138.02L1694.32 172.61L1696.91 169.27ZM1892.89 164.74L1922 137.22L1922 139.31L1886.81 172.61L1892.89 164.74ZM1716.63 102.35L1730.87 88.88L1730.88 88.9L1730.91 88.87L1745.15 102.35L1744.22 103.56L1730.89 90.95L1717.56 103.56L1716.63 102.35ZM1686.58 63.49L1730.81 21.65L1730.88 21.74L1730.97 21.64L1775.2 63.5L1774.27 64.7L1730.89 23.66L1687.52 64.7L1686.58 63.49ZM1812.54 -0.02L1814.74 -0.02L1820.27 5.21L1819.35 6.42L1812.54 -0.02ZM1776.97 -0.02L1779.18 -0.02L1805.25 24.64L1804.32 25.85L1776.97 -0.02ZM1634.66 329.75L1561.22 399.23L1560.29 398.02L1634.66 327.66L1709.03 398.02L1708.09 399.23L1634.66 329.75ZM1634.66 464.31L1621.31 476.94L1620.38 475.73L1634.66 462.23L1648.93 475.73L1648 476.94L1634.66 464.31ZM1634.66 397.03L1591.27 438.08L1590.34 436.88L1634.66 394.94L1678.98 436.88L1678.05 438.08L1634.66 397.03ZM1634.66 430.67L1606.29 457.51L1605.36 456.3L1634.66 428.58L1663.96 456.3L1663.02 457.51L1634.66 430.67ZM1634.66 296.11L1546.19 379.8L1545.26 378.59L1634.66 294.02L1724.05 378.59L1723.12 379.8L1634.66 296.11ZM1716.63 351.27L1730.87 337.8L1730.88 337.82L1730.91 337.79L1745.15 351.27L1744.22 352.48L1730.89 339.87L1717.56 352.48L1716.63 351.27ZM1730.89 272.58L1687.52 313.62L1686.58 312.41L1730.87 270.52L1730.88 270.53L1730.91 270.51L1775.2 312.42L1774.27 313.62L1730.89 272.58ZM1701.61 331.84L1730.87 304.16L1730.88 304.17L1730.91 304.15L1760.18 331.84L1759.25 333.05L1730.89 306.22L1702.54 333.05L1701.61 331.84ZM1656.53 522.48L1730.87 452.15L1730.88 452.17L1730.91 452.15L1805.25 522.48L1804.32 523.69L1730.89 454.22L1657.47 523.69L1656.53 522.48ZM1641.51 503.05L1730.87 418.51L1730.88 418.53L1730.91 418.5L1820.27 503.05L1819.35 504.26L1730.89 420.58L1642.44 504.26L1641.51 503.05ZM1213.89 296.1L1153.47 238.94L1093.06 296.1L1093.81 297.06L1057.24 262.46L1020.66 297.07L1021.41 296.1L1019.74 294.51L1021.56 295.91L1026.74 289.2L1057.24 260.38L1087.87 289.36L1092.13 294.89L1153.47 236.85L1214.82 294.89L1219.22 289.2L1249.71 260.38L1280.34 289.36L1284.6 294.89L1345.92 236.88L1345.94 236.89L1345.96 236.87L1407.29 294.89L1411.69 289.2L1442.18 260.38L1472.82 289.36L1477.07 294.89L1538.4 236.88L1538.41 236.89L1538.43 236.87L1597.75 292.99L1596.82 294.19L1538.42 238.94L1478.01 296.1L1478.75 297.06L1442.18 262.46L1405.61 297.06L1406.36 296.1L1345.95 238.94L1285.53 296.1L1286.27 297.05L1249.71 262.46L1213.14 297.07L1213.89 296.1ZM1791.31 296.1L1789.63 294.51L1791.45 295.91L1796.64 289.2L1827.13 260.38L1857.76 289.36L1862.02 294.89L1922 238.14L1922 240.23L1862.95 296.1L1863.7 297.06L1827.13 262.46L1790.55 297.07L1791.31 296.1ZM443.99 296.1L442.32 294.51L444.13 295.91L449.33 289.2L479.82 260.38L510.45 289.36L514.71 294.89L576.05 236.85L635.39 292.99L634.45 294.19L576.05 238.94L515.64 296.1L516.39 297.06L479.82 262.46L443.24 297.07L443.99 296.1ZM828.94 296.1L827.26 294.51L829.08 295.91L834.27 289.2L864.76 260.38L895.4 289.36L899.66 294.89L961 236.85L1020.33 292.99L1019.4 294.19L961 238.94L900.59 296.1L901.34 297.06L864.76 262.46L828.19 297.07L828.94 296.1ZM636.47 296.1L634.79 294.51L636.61 295.91L641.8 289.2L672.29 260.38L702.92 289.36L707.18 294.89L768.52 236.85L827.86 292.99L826.93 294.19L768.53 238.94L708.11 296.1L708.86 297.06L672.29 262.46L635.71 297.07L636.47 296.1ZM251.52 296.1L191.11 238.94L130.69 296.1L131.44 297.06L94.87 262.46L58.3 297.06L59.05 296.1L57.38 294.52L59.19 295.91L64.38 289.2L94.87 260.38L125.5 289.36L129.76 294.89L191.11 236.85L252.45 294.89L256.85 289.2L287.34 260.38L317.97 289.36L322.23 294.89L383.58 236.85L442.91 292.99L441.98 294.19L383.58 238.94L323.17 296.1L323.91 297.06L287.34 262.46L250.77 297.07L251.52 296.1ZM1634.66 262.46L1598.09 297.06L1598.83 296.1L1597.17 294.52L1598.97 295.91L1604.17 289.2L1634.66 260.38L1665.29 289.36L1669.55 294.89L1730.87 236.88L1730.88 236.89L1730.91 236.87L1790.23 292.99L1789.29 294.19L1730.89 238.94L1670.48 296.1L1671.23 297.06L1634.66 262.46ZM0 240.23L0 238.14L57.96 292.99L57.03 294.19L0 240.23ZM1827.13 329.75L1753.69 399.23L1752.76 398.02L1827.13 327.66L1901.5 398.02L1900.57 399.23L1827.13 329.75ZM1827.13 464.31L1813.79 476.94L1812.86 475.73L1827.13 462.23L1841.4 475.73L1840.47 476.94L1827.13 464.31ZM1827.13 397.03L1783.74 438.08L1782.81 436.88L1827.13 394.94L1871.45 436.88L1870.52 438.08L1827.13 397.03ZM1797.83 456.3L1827.13 428.58L1856.43 456.3L1855.5 457.51L1827.13 430.67L1798.76 457.51L1797.83 456.3ZM1827.13 296.11L1738.67 379.8L1737.74 378.59L1827.13 294.02L1916.52 378.59L1915.59 379.8L1827.13 296.11ZM1909.1 351.27L1922 339.07L1922 341.16L1910.04 352.48L1909.1 351.27ZM1849.01 273.56L1922 204.5L1922 206.59L1849.94 274.77L1849.01 273.56ZM1833.99 254.13L1922 170.86L1922 172.95L1834.92 255.34L1833.99 254.13ZM1879.06 312.42L1922 271.79L1922 273.88L1879.99 313.62L1879.06 312.42ZM1894.08 331.84L1922 305.43L1922 307.52L1895.01 333.05L1894.08 331.84ZM961 386.94L924.44 421.53L928.43 416.37L930.52 413.66L961 384.85L991.62 413.82L993.12 415.78L995.88 419.35L1057.24 361.3L1116.58 417.45L1115.65 418.65L1057.24 363.39L996.81 420.56L997.56 421.53L961 386.94ZM737.98 413.74L768.52 384.85L799.15 413.82L800.64 415.78L803.41 419.35L864.76 361.3L924.11 417.45L923.18 418.65L864.76 363.39L804.34 420.56L805.09 421.53L768.53 386.94L731.96 421.53L737.98 413.74ZM545.57 413.66L576.05 384.85L606.68 413.82L608.17 415.78L610.93 419.35L672.29 361.3L731.63 417.45L730.7 418.65L672.29 363.39L611.86 420.56L612.62 421.53L576.05 386.94L539.49 421.53L545.57 413.66ZM1730.89 386.94L1694.34 421.52L1700.42 413.66L1730.87 384.87L1730.88 384.89L1730.91 384.86L1761.52 413.82L1765.77 419.35L1827.13 361.3L1886.47 417.45L1885.54 418.65L1827.13 363.39L1766.7 420.56L1767.46 421.53L1730.89 386.94ZM383.58 386.94L347.02 421.52L353.1 413.66L383.58 384.85L414.2 413.82L418.46 419.35L479.82 361.3L539.16 417.45L538.23 418.65L479.82 363.39L419.39 420.56L420.14 421.53L383.58 386.94ZM0 388.23L0 386.14L29.25 413.82L30.75 415.78L33.51 419.35L94.87 361.3L154.22 417.45L153.28 418.65L94.87 363.39L34.44 420.56L35.19 421.53L0 388.23ZM191.11 386.94L154.55 421.52L160.63 413.66L191.11 384.85L221.73 413.82L223.22 415.78L225.99 419.35L287.34 361.3L346.69 417.45L345.76 418.65L287.34 363.39L226.92 420.56L227.66 421.52L191.11 386.94ZM1345.95 386.94L1309.39 421.52L1315.47 413.66L1345.92 384.87L1345.94 384.89L1345.96 384.86L1376.57 413.82L1380.83 419.35L1442.18 361.3L1501.53 417.45L1500.6 418.65L1442.18 363.39L1381.76 420.56L1382.5 421.52L1345.95 386.94ZM1153.47 386.94L1116.92 421.52L1120.9 416.37L1122.99 413.66L1153.47 384.85L1184.1 413.82L1185.59 415.78L1188.35 419.35L1249.71 361.3L1309.06 417.45L1308.12 418.65L1249.71 363.39L1189.28 420.56L1190.03 421.52L1153.47 386.94ZM1538.42 386.94L1501.87 421.52L1507.94 413.66L1538.4 384.87L1538.41 384.89L1538.43 384.86L1569.04 413.82L1573.3 419.35L1634.66 361.3L1694 417.45L1693.07 418.65L1634.66 363.39L1574.23 420.56L1574.98 421.52L1538.42 386.94ZM1892.89 413.66L1922 386.14L1922 388.23L1886.81 421.52L1892.89 413.66ZM1634.66 578.67L1561.22 648.15L1560.29 646.94L1634.66 576.58L1709.03 646.94L1708.09 648.15L1634.66 578.67ZM1634.66 713.23L1621.31 725.86L1620.38 724.65L1634.66 711.15L1648.93 724.65L1648 725.86L1634.66 713.23ZM1634.66 645.95L1591.27 687L1590.34 685.8L1634.66 643.86L1678.98 685.8L1678.05 687L1634.66 645.95ZM1634.66 679.59L1606.29 706.43L1605.36 705.22L1634.66 677.5L1663.96 705.22L1663.02 706.43L1634.66 679.59ZM1634.66 545.03L1546.19 628.72L1545.26 627.51L1634.66 542.94L1724.05 627.51L1723.12 628.72L1634.66 545.03ZM1716.63 600.19L1730.87 586.72L1730.88 586.74L1730.91 586.71L1745.15 600.19L1744.22 601.4L1730.89 588.79L1717.56 601.4L1716.63 600.19ZM1686.58 561.33L1730.81 519.49L1730.88 519.58L1730.97 519.48L1775.2 561.34L1774.27 562.54L1730.89 521.5L1687.52 562.54L1686.58 561.33ZM1701.61 580.76L1730.81 553.13L1730.88 553.22L1730.97 553.13L1760.18 580.76L1759.25 581.97L1730.89 555.14L1702.54 581.97L1701.61 580.76ZM1774.07 743.99L1730.89 703.14L1687.72 743.99L1685.51 743.99L1730.87 701.07L1730.88 701.09L1730.91 701.07L1776.27 743.99L1774.07 743.99ZM1738.51 743.99L1730.89 736.78L1723.28 743.99L1721.07 743.99L1730.87 734.72L1730.88 734.73L1730.91 734.71L1740.71 743.99L1738.51 743.99ZM1809.62 743.99L1730.89 669.5L1652.16 743.99L1649.96 743.99L1730.87 667.43L1730.88 667.45L1730.91 667.42L1811.83 743.99L1809.62 743.99ZM1213.89 545.02L1153.47 487.86L1093.06 545.02L1093.81 545.98L1057.24 511.38L1020.66 545.99L1021.41 545.02L1019.74 543.43L1021.56 544.83L1026.74 538.12L1057.24 509.3L1087.87 538.28L1092.13 543.81L1153.47 485.77L1214.82 543.81L1219.22 538.12L1249.71 509.3L1280.34 538.28L1284.6 543.81L1345.92 485.8L1345.94 485.81L1345.96 485.79L1407.29 543.81L1411.69 538.12L1442.18 509.3L1472.82 538.28L1477.07 543.81L1538.4 485.8L1538.41 485.81L1538.43 485.79L1597.75 541.91L1596.82 543.11L1538.42 487.86L1478.01 545.02L1478.75 545.98L1442.18 511.38L1405.62 545.98L1406.36 545.02L1345.95 487.86L1285.53 545.02L1286.27 545.97L1249.71 511.38L1213.14 545.99L1213.89 545.02ZM1791.31 545.02L1789.63 543.43L1791.45 544.83L1796.64 538.12L1827.13 509.3L1857.76 538.28L1862.02 543.81L1922 487.07L1922 489.15L1862.95 545.02L1863.7 545.98L1827.13 511.38L1790.55 545.99L1791.31 545.02ZM443.99 545.02L442.32 543.43L444.13 544.83L449.33 538.12L479.82 509.3L510.45 538.28L514.71 543.81L576.05 485.77L635.39 541.91L634.45 543.11L576.05 487.86L515.64 545.02L516.39 545.98L479.82 511.38L443.24 545.99L443.99 545.02ZM828.94 545.02L827.27 543.43L829.08 544.83L834.27 538.12L864.76 509.3L895.4 538.28L899.66 543.81L961 485.77L1020.33 541.91L1019.4 543.11L961 487.86L900.59 545.02L901.34 545.98L864.76 511.38L828.19 545.99L828.94 545.02ZM636.47 545.02L634.79 543.43L636.61 544.83L641.8 538.12L672.29 509.3L702.92 538.28L707.18 543.81L768.52 485.77L827.86 541.91L826.93 543.11L768.53 487.86L708.11 545.02L708.86 545.98L672.29 511.38L635.71 545.99L636.47 545.02ZM251.52 545.02L249.85 543.44L251.66 544.83L256.85 538.12L287.34 509.3L317.97 538.28L322.23 543.81L383.58 485.77L442.91 541.91L441.98 543.11L383.58 487.86L323.17 545.02L323.91 545.98L287.34 511.38L250.77 545.98L251.52 545.02ZM1634.66 511.38L1598.09 545.98L1598.83 545.02L1597.17 543.44L1598.97 544.83L1604.17 538.12L1634.66 509.3L1665.29 538.28L1669.55 543.81L1730.87 485.8L1730.88 485.81L1730.91 485.79L1790.23 541.91L1789.29 543.11L1730.89 487.86L1670.48 545.02L1671.23 545.98L1634.66 511.38ZM59.05 545.02L57.38 543.44L59.19 544.83L64.38 538.12L94.87 509.3L125.5 538.28L129.76 543.81L191.11 485.77L250.44 541.91L249.51 543.11L191.11 487.86L130.69 545.02L131.44 545.98L94.87 511.38L58.3 545.98L59.05 545.02ZM0 489.15L0 487.07L57.97 541.91L57.03 543.11L0 489.15ZM1827.13 578.67L1753.69 648.15L1752.76 646.94L1827.13 576.58L1901.5 646.94L1900.57 648.15L1827.13 578.67ZM1827.13 713.23L1813.79 725.86L1812.86 724.65L1827.13 711.15L1841.4 724.65L1840.47 725.86L1827.13 713.23ZM1827.13 645.95L1783.74 687L1782.81 685.8L1827.13 643.86L1871.45 685.8L1870.52 687L1827.13 645.95ZM1797.83 705.22L1827.13 677.5L1856.43 705.22L1855.5 706.43L1827.13 679.59L1798.76 706.43L1797.83 705.22ZM1827.13 545.03L1738.67 628.72L1737.74 627.51L1827.13 542.94L1916.52 627.51L1915.59 628.72L1827.13 545.03ZM1909.1 600.19L1922 587.99L1922 590.08L1910.04 601.4L1909.1 600.19ZM1849.01 522.48L1922 453.42L1922 455.51L1849.94 523.69L1849.01 522.48ZM1833.99 503.05L1922 419.78L1922 421.87L1834.92 504.26L1833.99 503.05ZM1879.06 561.34L1922 520.71L1922 522.8L1879.99 562.54L1879.06 561.34ZM1894.08 580.76L1922 554.35L1922 556.44L1895.01 581.97L1894.08 580.76ZM1502.61 669.48L1442.18 612.31L1381.76 669.48L1382.51 670.44L1345.95 635.86L1309.38 670.45L1310.14 669.48L1249.71 612.31L1189.28 669.48L1190.03 670.44L1153.47 635.86L1116.91 670.45L1117.66 669.48L1057.24 612.31L996.81 669.48L997.57 670.45L961 635.86L924.43 670.45L925.19 669.48L864.76 612.31L804.34 669.48L805.09 670.45L768.53 635.86L731.95 670.46L732.71 669.48L672.29 612.31L611.86 669.48L612.62 670.45L576.05 635.86L539.48 670.45L540.24 669.48L479.82 612.31L419.39 669.48L420.14 670.45L383.58 635.86L347.01 670.45L347.77 669.48L287.34 612.31L226.92 669.48L227.67 670.45L191.11 635.86L154.54 670.45L155.29 669.48L94.87 612.31L34.45 669.48L35.2 670.45L0 637.15L0 635.06L29.25 662.74L30.75 664.7L33.51 668.27L94.87 610.22L154.22 666.37L153.47 667.33L155.66 669.01L160.63 662.58L191.11 633.77L221.73 662.74L223.22 664.7L225.99 668.27L287.34 610.22L348.7 668.27L350.37 666.11L353.1 662.58L383.58 633.77L414.2 662.74L418.46 668.27L479.82 610.22L539.16 666.37L538.39 667.37L540.57 669.05L545.57 662.58L576.05 633.77L606.68 662.74L608.17 664.7L610.93 668.27L672.29 610.22L733.65 668.27L737.98 662.66L768.52 633.77L799.15 662.74L800.64 664.7L803.41 668.27L864.76 610.22L926.12 668.27L928.85 664.74L930.52 662.58L961 633.77L991.62 662.74L993.12 664.7L995.88 668.27L1057.24 610.22L1118.59 668.27L1121.33 664.74L1122.99 662.58L1153.47 633.77L1184.1 662.74L1185.59 664.7L1188.35 668.27L1249.71 610.22L1311.06 668.27L1315.47 662.58L1345.92 633.79L1345.94 633.81L1345.96 633.78L1376.57 662.74L1380.83 668.27L1442.18 610.22L1503.54 668.27L1504.49 667.05L1507.94 662.58L1538.4 633.79L1538.41 633.81L1538.43 633.78L1569.04 662.74L1573.3 668.27L1634.66 610.22L1694 666.37L1693.07 667.58L1634.66 612.31L1574.23 669.48L1574.98 670.44L1538.42 635.86L1501.85 670.46L1502.61 669.48ZM1696.91 667.11L1700.42 662.58L1730.87 633.79L1730.88 633.81L1730.91 633.78L1761.52 662.74L1765.77 668.27L1827.13 610.22L1886.47 666.37L1885.54 667.57L1827.13 612.31L1766.7 669.48L1767.46 670.45L1730.89 635.86L1694.32 670.45L1696.91 667.11ZM1892.89 662.58L1922 635.06L1922 637.15L1886.81 670.45L1892.89 662.58ZM1877.99 743.99L1922 702.34L1922 704.43L1880.19 743.99L1877.99 743.99ZM1913.54 743.99L1922 735.99L1922 738.07L1915.75 743.99L1913.54 743.99ZM1842.43 743.99L1922 668.7L1922 670.79L1844.64 743.99L1842.43 743.99Z" />
</svg>