<svg version="1.2" baseProfile="tiny-ps" xmlns="http://www.w3.org/2000/svg" viewBox="0 0 16 16" width="16" height="16">
	<g id="Sidebar">
		<g id="Latest Post">
			<g id="Blog_1">
				<g id="Date">
					<path fill="#fe3e57" fill-rule="evenodd" d="M16 3.12L16 14.12C16 15.16 15.16 16 14.12 16L1.87 16C0.84 16 0 15.16 0 14.12L0 3.12C0 2.09 0.84 1.25 1.87 1.25L2.62 1.25L2.62 0L3.88 0L3.88 1.25L12.12 1.25L12.12 0L13.37 0L13.37 1.25L14.12 1.25C15.16 1.25 16 2.09 16 3.12ZM1.87 2.5L2.62 2.5L2.62 3.75L3.88 3.75L3.88 2.5L12.12 2.5L12.12 3.75L13.37 3.75L13.37 2.5L14.12 2.5C14.47 2.5 14.75 2.78 14.75 3.12L14.75 4.62L1.25 4.62L1.25 3.12C1.25 2.78 1.53 2.5 1.87 2.5ZM14.12 14.75L1.87 14.75C1.53 14.75 1.25 14.47 1.25 14.12L1.25 5.87L14.75 5.87L14.75 14.12C14.75 14.47 14.47 14.75 14.12 14.75ZM2.37 7.19L3.62 7.19L3.62 8.44L2.37 8.44L2.37 7.19ZM4.87 7.19L6.12 7.19L6.12 8.44L4.87 8.44L4.87 7.19ZM7.37 7.19L8.62 7.19L8.62 8.44L7.37 8.44L7.37 7.19ZM9.87 7.19L11.12 7.19L11.12 8.44L9.87 8.44L9.87 7.19ZM12.37 7.19L13.62 7.19L13.62 8.44L12.37 8.44L12.37 7.19ZM2.37 9.69L3.62 9.69L3.62 10.94L2.37 10.94L2.37 9.69ZM4.87 9.69L6.12 9.69L6.12 10.94L4.87 10.94L4.87 9.69ZM7.37 9.69L8.62 9.69L8.62 10.94L7.37 10.94L7.37 9.69ZM9.87 9.69L11.12 9.69L11.12 10.94L9.87 10.94L9.87 9.69ZM2.37 12.19L3.62 12.19L3.62 13.44L2.37 13.44L2.37 12.19ZM4.87 12.19L6.12 12.19L6.12 13.44L4.87 13.44L4.87 12.19ZM7.37 12.19L8.62 12.19L8.62 13.44L7.37 13.44L7.37 12.19ZM9.87 12.19L11.12 12.19L11.12 13.44L9.87 13.44L9.87 12.19ZM12.37 9.69L13.62 9.69L13.62 10.94L12.37 10.94L12.37 9.69Z" />
				</g>
			</g>
		</g>
	</g>
</svg>