<svg xmlns="http://www.w3.org/2000/svg" viewBox="0 0 20 21" width="20" height="21">
	<path fill="#fe3e57" fill-rule="evenodd" d="M20 10.55C20 13.22 18.96 15.73 17.07 17.62C15.18 19.51 12.67 20.55 10 20.55C7.33 20.55 4.82 19.51 2.93 17.62C1.04 15.73 0 13.22 0 10.55C0 7.88 1.04 5.37 2.93 3.48C4.82 1.59 7.33 0.55 10 0.55C12.67 0.55 15.18 1.59 17.07 3.48C18.96 5.37 20 7.88 20 10.55ZM10 19.38C5.13 19.38 1.17 15.42 1.17 10.55C1.17 5.68 5.13 1.72 10 1.72C14.87 1.72 18.83 5.68 18.83 10.55C18.83 15.42 14.87 19.38 10 19.38ZM14.78 7.34C15.01 7.57 15.01 7.94 14.78 8.17L9.19 13.76C9.07 13.87 8.92 13.93 8.77 13.93C8.62 13.93 8.47 13.87 8.36 13.76L5.22 10.62C4.99 10.39 4.99 10.02 5.22 9.79C5.45 9.56 5.82 9.56 6.05 9.79L8.77 12.52L13.95 7.34C14.18 7.11 14.55 7.11 14.78 7.34Z" />
</svg>