<svg version="1.2" baseProfile="tiny-ps" xmlns="http://www.w3.org/2000/svg" viewBox="0 0 16 16" width="16" height="16">
	<g id="Blog Dtails">
		<g id="Blog_Details">
			<g id="Comment">
				<path fill="#fe3e57" fill-rule="evenodd" d="M16 0.62L16 13C16 13.34 15.72 13.62 15.37 13.62L9.84 13.62L8.53 15.71C8.41 15.89 8.21 16 8 16C7.79 16 7.59 15.89 7.47 15.71L6.16 13.62L0.62 13.62C0.28 13.62 0 13.34 0 13L0 0.62C0 0.28 0.28 0 0.62 0L15.37 0C15.72 0 16 0.28 16 0.62ZM14.75 12.37L9.5 12.37C9.29 12.37 9.09 12.48 8.97 12.67L8 14.2L7.03 12.67C6.91 12.48 6.71 12.37 6.5 12.37L1.25 12.37L1.25 1.25L14.75 1.25L14.75 12.37ZM7.22 6.81C7.22 6.38 7.57 6.03 8 6.03C8.43 6.03 8.78 6.38 8.78 6.81C8.78 7.24 8.43 7.59 8 7.59C7.57 7.59 7.22 7.24 7.22 6.81ZM4.09 6.81C4.09 6.38 4.44 6.03 4.87 6.03C5.31 6.03 5.66 6.38 5.66 6.81C5.66 7.24 5.31 7.59 4.87 7.59C4.44 7.59 4.09 7.24 4.09 6.81ZM10.34 6.81C10.34 6.38 10.69 6.03 11.12 6.03C11.56 6.03 11.91 6.38 11.91 6.81C11.91 7.24 11.56 7.59 11.12 7.59C10.69 7.59 10.34 7.24 10.34 6.81Z" />
			</g>
		</g>
	</g>
</svg>