<svg version="1.2" baseProfile="tiny-ps" xmlns="http://www.w3.org/2000/svg" viewBox="0 0 18 20" width="18" height="20">
	<g id="Get Info">
		<g id="mail">
			<path fill="#fe3e57" fill-rule="evenodd" d="M5.75 13.56L0.18 19C0.07 18.77 0 18.52 0 18.25L0 7.94C2.22 10.11 3.62 11.47 5.75 13.56ZM18 7.94L18 18.25C18 18.52 17.93 18.77 17.82 19L12.25 13.56C14.41 11.45 15.87 10.02 18 7.94ZM9.59 6.48C9.53 6.83 9.41 7.11 9 7.11C8.67 7.11 8.4 6.85 8.4 6.52C8.4 6.2 8.67 5.94 9 5.94C9.32 5.94 9.57 6.18 9.59 6.48ZM16.97 19.83C16.74 19.94 16.48 20 16.2 20L1.8 20C1.52 20 1.26 19.94 1.03 19.83L6.85 14.14L11.15 14.14L16.97 19.83ZM0.6 6.87L2.4 5.11L2.4 8.62L0.6 6.87ZM15.6 8.62L15.6 5.11L17.4 6.87L15.6 8.62ZM6.85 12.97L3.6 9.8L3.6 0.64C3.6 0.28 3.89 0 4.26 0L13.63 0C14.05 0 14.4 0.33 14.4 0.75L14.4 9.8L11.15 12.97L6.85 12.97ZM4.8 6.52C4.8 4.26 6.68 2.42 9 2.42C11.32 2.42 13.2 4.26 13.2 6.52C13.2 8.03 11.37 8.85 10.2 7.82C9.88 8.11 9.46 8.28 9 8.28C8.01 8.28 7.2 7.49 7.2 6.52C7.2 5.55 8.01 4.76 9 4.76C9.99 4.76 10.8 5.55 10.8 6.52C10.8 7.3 12 7.3 12 6.52C12 4.91 10.65 3.59 9 3.59C7.34 3.59 6 4.91 6 6.52C6 7.53 6.52 8.45 7.39 8.99C8.28 9.55 9.38 9.6 10.41 9.14C11.13 8.81 11.64 9.88 10.92 10.2C9.54 10.82 8.01 10.78 6.74 9.98C5.53 9.22 4.8 7.93 4.8 6.52Z" />
		</g>
	</g>
</svg>