<svg version="1.2" baseProfile="tiny-ps" xmlns="http://www.w3.org/2000/svg" viewBox="0 0 16 16" width="16" height="16">
	<path fill-rule="evenodd" fill="#727272" d="M15.77 6.86C16.04 7.09 16.07 7.51 15.83 7.78L15.83 7.78C15.6 8.05 15.19 8.08 14.92 7.85L14.64 7.59L14.64 14.03C14.64 15.12 13.77 16 12.7 16L9.16 16L9.16 10.73C9.16 10.09 8.65 9.58 8.03 9.58L8.03 9.58C7.41 9.58 6.9 10.09 6.9 10.73L6.9 16L3.29 16C2.23 16 1.36 15.12 1.36 14.03L1.36 7.59L1.07 7.85C0.8 8.08 0.4 8.05 0.16 7.78L0.16 7.78C-0.07 7.51 -0.04 7.09 0.23 6.86L8 0L15.77 6.86ZM13.35 14.03C13.35 14.4 13.06 14.69 12.7 14.69L10.45 14.69L10.45 10.73C10.45 9.37 9.37 8.27 8.03 8.27L8.03 8.27C6.7 8.27 5.61 9.37 5.61 10.73L5.61 14.69L3.29 14.69C2.94 14.69 2.65 14.4 2.65 14.03L2.65 6.46L8 1.73L13.35 6.46L13.35 14.03Z" />
</svg>