<svg version="1.2" baseProfile="tiny-ps" xmlns="http://www.w3.org/2000/svg" viewBox="0 0 14 20" width="14" height="20">
	<g id="Get Info">
		<g id="location">
			<path fill="#fe3e57" fill-rule="evenodd" d="M13.99 7.24C13.99 12.2 7.73 19.47 7.47 19.77C7.22 20.06 6.78 20.06 6.53 19.77C6.26 19.47 0 12.2 0 7.24C0 3.25 3.14 0 7 0C10.86 0 13.99 3.25 13.99 7.24ZM7 10.88C5.06 10.88 3.48 9.25 3.48 7.24C3.48 5.23 5.06 3.6 7 3.6C8.94 3.6 10.52 5.23 10.52 7.24C10.52 9.25 8.94 10.88 7 10.88Z" />
		</g>
	</g>
</svg>