<svg version="1.2" baseProfile="tiny-ps" xmlns="http://www.w3.org/2000/svg" viewBox="0 0 20 20" width="20" height="20">
	<g id="Get Info">
		<g id="Phone">
			<path fill="#fe3e57" fill-rule="evenodd" d="M19.48 17.25L19.06 17.66L14.09 12.69L14.51 12.27C15.17 11.61 16.33 11.61 16.99 12.27L19.48 14.76C20.16 15.45 20.16 16.56 19.48 17.25ZM13.24 13.5L18.2 18.46C15.57 20.71 11.87 20.41 9.61 18.15L1.84 10.37C-0.51 8.01 -0.6 4.26 1.53 1.77L6.49 6.74C6.09 7.26 6.1 8.01 6.58 8.49L11.5 13.41C11.97 13.88 12.72 13.9 13.24 13.5ZM7.3 5.89L2.33 0.91L2.74 0.5C3.41 -0.17 4.57 -0.17 5.23 0.5L7.71 2.98C8.4 3.67 8.4 4.78 7.71 5.47L7.3 5.89Z" />
		</g>
	</g>
</svg>