<svg version="1.2" baseProfile="tiny-ps" xmlns="http://www.w3.org/2000/svg" viewBox="0 0 20 20" width="20" height="20">
	<title>Blog_section</title>
	<style>
		tspan { white-space:pre }
		.shp0 { fill: #8d8d8d } 
	</style>
	<g id="Blog_section">
		<g id="Blog_1">
			<g id="Time">
				<path id="Shape 16" class="shp0" d="M17.9 5.26C18.31 5.06 18.81 5.23 19.01 5.65C19.67 7.01 20 8.47 20 10C20 15.51 15.51 20 10 20C4.49 20 0 15.51 0 10C0 4.49 4.49 0 10 0C12.25 0 14.46 0.77 16.21 2.16C16.57 2.45 16.63 2.97 16.34 3.33C16.06 3.69 15.53 3.75 15.17 3.46C13.69 2.29 11.9 1.67 10 1.67C5.4 1.67 1.67 5.4 1.67 10C1.67 14.59 5.4 18.33 10 18.33C14.59 18.33 18.33 14.59 18.33 10C18.33 8.72 18.06 7.51 17.51 6.37C17.31 5.96 17.48 5.46 17.9 5.26L17.9 5.26ZM17.9 5.26M10 3.33C10.46 3.33 10.83 3.71 10.83 4.17L10.83 9.17L14.17 9.17C14.63 9.17 15 9.54 15 10C15 10.46 14.63 10.83 14.17 10.83L10 10.83C9.54 10.83 9.17 10.46 9.17 10L9.17 4.17C9.17 3.71 9.54 3.33 10 3.33L10 3.33ZM10 3.33" />
			</g>
		</g>
	</g>
</svg>