<svg version="1.2" baseProfile="tiny-ps" xmlns="http://www.w3.org/2000/svg" viewBox="0 0 16 16" width="16" height="16">
	<g id="Blog Dtails">
		<g id="Blog_Details">
			<g id="By Admin">
				<path fill="#fe3e57" fill-rule="evenodd" d="M16 16L14.75 16C14.75 12.28 11.72 9.25 8 9.25C4.28 9.25 1.25 12.28 1.25 16L0 16C0 13.86 0.83 11.85 2.34 10.34C3.21 9.47 4.25 8.83 5.38 8.44C4.17 7.6 3.37 6.2 3.37 4.62C3.37 2.07 5.45 0 8 0C10.55 0 12.62 2.07 12.62 4.62C12.62 6.2 11.83 7.6 10.62 8.44C11.75 8.83 12.79 9.47 13.66 10.34C15.17 11.85 16 13.86 16 16ZM4.62 4.62C4.62 2.76 6.14 1.25 8 1.25C9.86 1.25 11.37 2.76 11.37 4.62C11.37 6.49 9.86 8 8 8C6.14 8 4.62 6.49 4.62 4.62Z" />
			</g>
		</g>
	</g>
</svg>