<svg version="1.2" baseProfile="tiny-ps" xmlns="http://www.w3.org/2000/svg" viewBox="0 0 23 25" width="23" height="25">
	<path fill-rule="evenodd" fill="#ffffff" d="M22.69 6.72L18.46 6.41L18.56 4.94L20.42 5.08C18.36 2.79 15.45 1.47 12.36 1.47C6.35 1.47 1.45 6.42 1.45 12.5C1.45 18.58 6.35 23.53 12.36 23.53C15.99 23.53 19.38 21.7 21.42 18.63L22.62 19.45C20.32 22.93 16.48 25 12.36 25C5.54 25 0 19.39 0 12.5C0 5.61 5.54 0 12.36 0C15.83 0 19.1 1.47 21.43 4.02L21.55 2.33L23 2.44L22.69 6.72ZM4.07 12.78C4.21 12.85 4.62 13.02 5.01 13.02C5.37 13.02 5.62 12.91 5.62 12.65C5.62 12.39 5.32 12.24 5 12.24L4.54 12.24L4.54 11.51L4.98 11.51C5.22 11.51 5.53 11.43 5.53 11.2C5.53 11.03 5.36 10.91 5.03 10.91C4.68 10.91 4.31 11.06 4.17 11.14L3.95 10.4C4.2 10.24 4.7 10.1 5.26 10.1C6.08 10.1 6.59 10.49 6.59 11.03C6.59 11.41 6.37 11.71 5.89 11.87L5.89 11.88C6.33 11.93 6.71 12.26 6.71 12.72C6.71 13.42 6.05 13.83 5.1 13.83C4.55 13.83 4.09 13.7 3.85 13.55L4.07 12.78ZM8.68 13.83C7.62 13.83 7.19 12.95 7.19 11.97C7.19 10.99 7.62 10.1 8.69 10.1C9.76 10.1 10.19 10.99 10.19 11.97C10.19 12.95 9.76 13.83 8.69 13.83L8.68 13.83ZM8.7 13.08C8.97 13.08 9.16 12.73 9.16 11.97C9.16 11.2 8.97 10.86 8.69 10.86C8.41 10.86 8.22 11.2 8.22 11.97C8.22 12.73 8.41 13.08 8.69 13.08L8.7 13.08ZM11.88 10.08C12.23 10.03 12.7 10 13.18 10C13.95 10 14.43 10.12 14.84 10.38C15.27 10.65 15.57 11.11 15.57 11.79C15.57 12.57 15.25 13.04 14.89 13.31C14.44 13.66 13.75 13.81 12.97 13.81C12.43 13.81 12.08 13.78 11.88 13.75L11.88 10.08ZM12.91 13C12.97 13.01 13.08 13.01 13.15 13.01C13.91 13.02 14.46 12.66 14.46 11.85C14.46 11.1 13.94 10.79 13.27 10.79C13.08 10.79 12.97 10.81 12.91 10.82L12.91 13ZM18.64 13.09C18.64 13.38 18.65 13.65 18.68 13.77L17.75 13.77L17.7 13.54L17.67 13.54C17.48 13.76 17.19 13.83 16.88 13.83C16.29 13.83 15.94 13.42 15.94 12.98C15.94 12.24 16.59 11.91 17.61 11.91L17.61 11.89C17.61 11.79 17.54 11.67 17.14 11.67C16.84 11.67 16.5 11.78 16.32 11.88L16.14 11.23C16.31 11.14 16.71 10.97 17.32 10.97C18.24 10.97 18.64 11.45 18.64 12.18L18.64 13.09ZM17.64 12.54C17.19 12.54 16.97 12.65 16.97 12.88C16.97 13.03 17.07 13.12 17.26 13.12C17.42 13.12 17.59 13 17.63 12.84C17.64 12.79 17.64 12.74 17.64 12.69L17.64 12.54ZM20.08 11.04L20.44 12.22C20.48 12.38 20.54 12.6 20.58 12.73L20.6 12.73C20.64 12.59 20.68 12.37 20.71 12.22L20.98 11.04L22.11 11.04L21.54 12.6C21.04 13.98 20.75 14.37 20.45 14.62C20.12 14.89 19.77 14.98 19.48 15L19.29 14.12C19.38 14.12 19.5 14.09 19.62 14.05C19.76 14 19.91 13.88 19.97 13.8C20.01 13.76 20.03 13.71 20.03 13.67C20.03 13.64 20.02 13.6 19.99 13.51L18.93 11.04L20.08 11.04Z" />
</svg>