<svg version="1.2" baseProfile="tiny-ps" xmlns="http://www.w3.org/2000/svg" viewBox="0 0 40 25" width="40" height="25">
	<path fill-rule="evenodd" fill="#ffffff" d="M40 13.82L40 20.42C40 20.76 39.72 21.04 39.37 21.04L37.33 21.04C37.33 21.05 37.33 21.07 37.33 21.08C37.33 23.24 35.55 25 33.36 25C31.17 25 29.39 23.24 29.39 21.08C29.39 21.07 29.39 21.05 29.39 21.04L15.28 21.04C15.28 21.05 15.28 21.07 15.28 21.08C15.28 23.24 13.5 25 11.31 25C9.13 25 7.35 23.24 7.35 21.08C7.35 21.07 7.35 21.05 7.35 21.04L3.96 21.04C3.25 21.04 2.67 20.47 2.67 19.76L2.67 18.4L0.62 18.4C0.28 18.4 0 18.12 0 17.78C0 17.44 0.28 17.16 0.62 17.16L6.64 17.16C6.98 17.16 7.26 17.44 7.26 17.78C7.26 18.12 6.98 18.4 6.64 18.4L3.92 18.4L3.92 19.76C3.92 19.78 3.94 19.8 3.96 19.8L7.56 19.8C8.1 18.27 9.58 17.16 11.31 17.16C13.05 17.16 14.52 18.27 15.06 19.8L28.06 19.8L28.06 15.14C28.06 14.8 28.34 14.52 28.68 14.52C29.03 14.52 29.31 14.8 29.31 15.14L29.31 19.8L29.61 19.8C30.15 18.27 31.63 17.16 33.36 17.16C35.09 17.16 36.57 18.27 37.11 19.8L38.75 19.8L38.75 17.08L38.04 17.08C36.95 17.08 36.07 16.21 36.07 15.14L36.07 13.82C36.07 13.48 36.35 13.2 36.7 13.2L38.65 13.2C38.38 12.39 37.61 11.8 36.7 11.8C36.7 11.8 36.7 11.8 36.7 11.8C36.7 11.8 36.7 11.8 36.7 11.8L29.31 11.8L29.31 12.5C29.31 12.84 29.03 13.12 28.68 13.12C28.34 13.12 28.06 12.84 28.06 12.5L28.06 1.28C28.06 1.25 28.04 1.24 28.02 1.24L3.96 1.24C3.94 1.24 3.92 1.25 3.92 1.28L3.92 12.5C3.92 12.84 3.64 13.12 3.3 13.12C2.95 13.12 2.67 12.84 2.67 12.5L2.67 1.28C2.67 0.57 3.25 0 3.96 0L28.02 0C28.73 0 29.31 0.57 29.31 1.28L29.31 2.64L34.03 2.64C35.48 2.64 36.66 3.81 36.66 5.24L36.66 5.9C36.66 6.2 36.45 6.44 36.16 6.5L37.2 10.6C38.78 10.84 40 12.19 40 13.82ZM29.31 6.52L34.88 6.52L35.9 10.56L29.31 10.56L29.31 6.52ZM34.03 3.88C34.79 3.88 35.41 4.49 35.41 5.24L35.41 5.28L29.31 5.28L29.31 3.88L34.03 3.88ZM11.31 23.76C9.82 23.76 8.6 22.56 8.6 21.08C8.6 19.6 9.82 18.4 11.31 18.4C12.81 18.4 14.03 19.6 14.03 21.08C14.03 22.56 12.81 23.76 11.31 23.76ZM33.36 23.76C31.86 23.76 30.65 22.56 30.65 21.08C30.65 19.6 31.86 18.4 33.36 18.4C34.86 18.4 36.07 19.6 36.07 21.08C36.07 22.56 34.86 23.76 33.36 23.76ZM38.04 15.84C37.65 15.84 37.33 15.53 37.33 15.14L37.33 14.44L38.75 14.44L38.75 15.84L38.04 15.84ZM12.61 21.08C12.61 21.79 12.03 22.36 11.31 22.36C10.6 22.36 10.02 21.79 10.02 21.08C10.02 20.38 10.6 19.8 11.31 19.8C12.03 19.8 12.61 20.38 12.61 21.08ZM34.65 21.08C34.65 21.79 34.07 22.36 33.36 22.36C32.65 22.36 32.07 21.79 32.07 21.08C32.07 20.38 32.65 19.8 33.36 19.8C34.07 19.8 34.65 20.38 34.65 21.08ZM16.66 17.16L26.01 17.16C26.36 17.16 26.64 17.44 26.64 17.78C26.64 18.12 26.36 18.4 26.01 18.4L16.66 18.4C16.31 18.4 16.03 18.12 16.03 17.78C16.03 17.44 16.31 17.16 16.66 17.16ZM1.33 15.14C1.33 14.8 1.61 14.52 1.96 14.52L9.98 14.52C10.32 14.52 10.6 14.8 10.6 15.14C10.6 15.48 10.32 15.76 9.98 15.76L1.96 15.76C1.61 15.76 1.33 15.48 1.33 15.14ZM21.78 6.12C22.02 6.36 22.02 6.75 21.78 7L15.76 12.94C15.64 13.06 15.48 13.12 15.32 13.12C15.16 13.12 15 13.06 14.88 12.94L11.54 9.64C11.29 9.39 11.29 9 11.54 8.76C11.78 8.52 12.18 8.52 12.42 8.76L15.32 11.62L20.89 6.12C21.14 5.88 21.53 5.88 21.78 6.12Z" />
</svg>