<svg version="1.2" baseProfile="tiny-ps" xmlns="http://www.w3.org/2000/svg" viewBox="0 0 26 25" width="26" height="25">
	<path fill-rule="evenodd" fill="#ffffff" d="M25.38 11.68C26.16 12.38 26.2 13.39 25.49 14.21L21.35 18.97C21.16 19.19 20.94 19.39 20.69 19.55C20.69 19.56 20.68 19.56 20.68 19.56C20 19.98 19.15 20.2 18.15 20.2L12 20.2C11.57 20.2 11.14 20.22 10.72 20.27L10.03 20.35L10.33 20.64C10.43 20.73 10.48 20.85 10.49 20.99C10.49 21.12 10.43 21.25 10.34 21.35L6.85 24.85C6.75 24.95 6.61 25 6.48 25C6.35 25 6.23 24.95 6.13 24.86L0.16 19.31C0.06 19.22 0.01 19.09 0 18.96C0 18.83 0.05 18.7 0.15 18.6L3.67 15.03C3.77 14.93 3.9 14.88 4.04 14.88C4.04 14.88 4.04 14.88 4.04 14.88C4.18 14.88 4.31 14.93 4.4 15.02L5.13 15.71C5.4 15.32 5.84 14.8 6.45 14.32C7.93 13.14 9.69 12.77 11.53 13.27C12.23 13.46 12.97 13.56 13.74 13.56L17.78 13.56C18.37 13.56 18.89 13.78 19.25 14.2C19.32 14.28 19.39 14.37 19.44 14.47L22.33 11.68C22.76 11.26 23.33 11.05 23.93 11.08C24.47 11.11 24.99 11.33 25.38 11.68L25.38 11.68ZM6.47 23.8L1.24 18.94L4.05 16.08L9.25 21.01L6.47 23.8ZM24.72 13.56L20.57 18.33C20.44 18.48 20.28 18.61 20.12 18.73C19.61 19.04 18.95 19.2 18.15 19.2L11.99 19.2C11.53 19.2 11.06 19.23 10.61 19.28L9.07 19.45L5.87 16.41C6.09 16.09 6.5 15.57 7.09 15.09C8.33 14.11 9.73 13.82 11.25 14.23C12.05 14.45 12.88 14.56 13.74 14.56L17.78 14.56C18.51 14.56 18.7 15.17 18.7 15.53C18.7 15.8 18.62 16.05 18.47 16.23C18.3 16.42 18.07 16.51 17.77 16.51L14.25 16.51C13.96 16.51 13.73 16.74 13.73 17.01C13.73 17.29 13.96 17.51 14.25 17.51L17.77 17.51C18.36 17.51 18.89 17.28 19.24 16.87C19.54 16.53 19.71 16.08 19.73 15.6L23.06 12.38C23.53 11.92 24.27 12.04 24.69 12.41C24.91 12.6 25.19 13.01 24.72 13.56L24.72 13.56ZM24.72 13.56M12.66 16.9C12.72 17.17 12.55 17.44 12.27 17.5C12.24 17.51 12.2 17.51 12.16 17.51C11.93 17.51 11.72 17.36 11.66 17.13L11.66 17.11C11.59 16.84 11.76 16.57 12.04 16.51C12.31 16.44 12.59 16.61 12.65 16.88L12.66 16.9ZM12.65 16.88M3.46 10.53C2.78 10.53 2.22 9.99 2.22 9.32L2.22 7.06C2.22 6.04 2.81 5.15 3.68 4.71C3.26 4.22 3 3.58 3 2.88C3 1.29 4.32 0 5.95 0C7.58 0 8.9 1.29 8.9 2.88C8.9 3.58 8.65 4.22 8.22 4.71C8.6 4.9 8.92 5.18 9.17 5.51C9.41 5.18 9.74 4.9 10.12 4.71C9.69 4.22 9.44 3.58 9.44 2.88C9.44 1.29 10.76 0 12.39 0C14.01 0 15.34 1.29 15.34 2.88C15.34 3.58 15.08 4.22 14.66 4.71C15.04 4.9 15.36 5.18 15.61 5.51C15.85 5.18 16.17 4.9 16.55 4.71C16.13 4.22 15.87 3.58 15.87 2.88C15.87 1.29 17.2 0 18.82 0C20.45 0 21.77 1.29 21.77 2.88C21.77 3.58 21.52 4.22 21.09 4.71C21.97 5.15 22.55 6.04 22.55 7.06L22.55 9.32C22.55 9.99 22 10.53 21.31 10.53L16.33 10.53C16.06 10.53 15.81 10.45 15.61 10.3C15.4 10.45 15.15 10.53 14.88 10.53L9.9 10.53C9.62 10.53 9.37 10.45 9.17 10.3C8.96 10.45 8.71 10.53 8.44 10.53L3.46 10.53L3.46 10.53ZM18.82 1C19.89 1 20.75 1.84 20.75 2.88C20.75 3.92 19.89 4.76 18.82 4.76C17.76 4.76 16.9 3.92 16.9 2.88C16.9 1.84 17.76 1 18.82 1L18.82 1ZM17.49 5.45C17.89 5.65 18.35 5.76 18.82 5.76C19.3 5.76 19.75 5.65 20.15 5.45C20.95 5.58 21.53 6.25 21.53 7.06L21.53 9.32C21.53 9.44 21.43 9.53 21.31 9.53L16.33 9.53C16.21 9.53 16.12 9.44 16.12 9.32L16.12 7.06C16.12 6.25 16.7 5.58 17.49 5.45L17.49 5.45ZM12.39 1C13.45 1 14.31 1.84 14.31 2.88C14.31 3.92 13.45 4.76 12.39 4.76C11.32 4.76 10.46 3.92 10.46 2.88C10.46 1.84 11.32 1 12.39 1L12.39 1ZM11.06 5.45C11.46 5.65 11.91 5.76 12.39 5.76C12.86 5.76 13.32 5.65 13.72 5.45C14.51 5.58 15.09 6.25 15.09 7.06L15.09 9.32C15.09 9.44 15 9.53 14.88 9.53L9.9 9.53C9.78 9.53 9.68 9.44 9.68 9.32L9.68 7.06C9.68 6.25 10.26 5.58 11.06 5.45L11.06 5.45ZM5.95 1C7.01 1 7.88 1.84 7.88 2.88C7.88 3.92 7.01 4.76 5.95 4.76C4.89 4.76 4.02 3.92 4.02 2.88C4.02 1.84 4.89 1 5.95 1L5.95 1ZM3.24 7.06C3.24 6.25 3.83 5.58 4.62 5.45C5.02 5.65 5.47 5.76 5.95 5.76C6.43 5.76 6.88 5.65 7.28 5.45C8.07 5.58 8.66 6.25 8.66 7.06L8.66 9.32C8.66 9.44 8.56 9.53 8.44 9.53L3.46 9.53C3.34 9.53 3.24 9.44 3.24 9.32L3.24 7.06ZM3.24 7.06" />
</svg>